<?xml version="1.0" encoding="UTF-8"?>
<svg version="1.1" xmlns="http://www.w3.org/2000/svg" width="512" height="512">
<path d="M0 0 C168.96 0 337.92 0 512 0 C512 168.96 512 337.92 512 512 C343.04 512 174.08 512 0 512 C0 343.04 0 174.08 0 0 Z " fill="#7A89B3" transform="translate(0,0)"/>
<path d="M0 0 C5.89699273 3.53165554 9.31128851 7.96974715 13.17578125 13.515625 C14.333376 15.14802924 15.49225582 16.77952287 16.65234375 18.41015625 C17.52294434 19.63726318 17.52294434 19.63726318 18.41113281 20.88916016 C20.90332239 24.36864573 23.47131582 27.78811916 26.05078125 31.203125 C26.53329346 31.84668945 27.01580566 32.49025391 27.51293945 33.15332031 C30.21826501 36.76160545 32.9464381 40.35055359 35.6953125 43.92578125 C47.20525894 59.03067375 57.75893253 74.79020264 57.61328125 94.453125 C57.60756104 95.36586182 57.60184082 96.27859863 57.59594727 97.21899414 C57.3061462 108.33388967 53.74787093 117.25836269 48.61328125 127.078125 C45.79702744 132.48311867 43.85572998 137.76650988 42.23828125 143.640625 C42.03525391 144.37772705 41.83222656 145.1148291 41.62304688 145.87426758 C39.05882018 155.70860933 38.98632327 165.14076342 39.05078125 175.265625 C39.05580638 176.62630044 39.06036749 177.98697767 39.06445312 179.34765625 C39.07617666 182.65369225 39.09258698 185.95963501 39.11328125 189.265625 C39.58636719 188.38261719 40.05945313 187.49960937 40.546875 186.58984375 C48.65327784 171.75512656 59.77522311 159.09194249 72.05078125 147.515625 C82.90462581 136.70719402 90.93133961 124.62193338 96.11328125 110.265625 C96.34337387 109.63780624 96.57346649 109.00998749 96.81053162 108.36314392 C101.83700863 94.16415891 101.8612201 80.18838086 101.86328125 65.265625 C101.88492992 61.69792383 101.91330636 58.13036384 101.94561768 54.56274414 C101.96333386 52.36145785 101.97365697 50.1600968 101.97576904 47.95874023 C101.98147919 46.48449585 101.98147919 46.48449585 101.98730469 44.98046875 C101.98776794 44.11542725 101.9882312 43.25038574 101.9887085 42.35913086 C102.11328125 40.265625 102.11328125 40.265625 103.11328125 38.265625 C102.45328125 38.265625 101.79328125 38.265625 101.11328125 38.265625 C100.87609375 38.79414062 100.63890625 39.32265625 100.39453125 39.8671875 C98.72894129 42.98509066 96.68659029 45.78719623 94.61328125 48.640625 C93.71613331 49.88670974 92.81899829 51.13280377 91.921875 52.37890625 C90.9857116 53.67450411 90.04951343 54.97007684 89.11328125 56.265625 C87.29750529 58.7841183 85.48584168 61.30552213 83.67578125 63.828125 C83.26328125 64.39901855 82.85078125 64.96991211 82.42578125 65.55810547 C80.65329614 68.02744631 78.98699581 70.48408085 77.46484375 73.1171875 C76.11328125 75.265625 76.11328125 75.265625 73.92578125 76.078125 C73.32765625 76.14 72.72953125 76.201875 72.11328125 76.265625 C70.36919142 73.06812698 70.04547858 71.59411722 70.79296875 67.97265625 C72.19291242 64.04204517 73.87771847 61.35714318 76.36328125 58.015625 C76.79656738 57.42700684 77.22985352 56.83838867 77.67626953 56.23193359 C78.63110749 54.93691585 79.59046619 53.64522227 80.55371094 52.35644531 C82.20323619 50.14502793 83.83546073 47.92160745 85.46484375 45.6953125 C92.4851522 36.11351365 99.57764593 26.58561648 106.73364258 17.10473633 C107.71443941 15.79729649 108.68743759 14.48399048 109.6550293 13.16674805 C115.40463974 5.37223322 121.18233441 -1.03703176 131.11328125 -2.734375 C141.04685925 -3.90023206 148.91117247 -2.67299382 157.11328125 3.265625 C163.36734197 9.4084035 167.17411972 16.2498522 167.61328125 25.078125 C167.09558978 40.58969533 152.74243885 55.23465126 143.72949219 67.13232422 C140.01253093 72.04189972 136.3896229 77.01178869 132.80078125 82.015625 C128.04591956 88.6383908 123.20312155 95.18879777 118.30078125 101.703125 C112.18521688 109.83137762 106.10302213 117.97094977 100.28515625 126.31640625 C92.09396276 138.05568467 83.6683762 148.82956642 73.42431641 158.85302734 C67.35807907 164.86670048 62.16402036 171.3898289 57.11328125 178.265625 C56.54222656 179.04164063 55.97117187 179.81765625 55.3828125 180.6171875 C46.20962655 193.74984513 38.34623698 207.8425077 40.11328125 224.265625 C41.34464946 229.62775323 44.04561408 232.61630008 48.48828125 235.765625 C54.81603048 239.18223516 61.0967414 239.39328319 68.11328125 238.265625 C71.24283672 237.03408697 73.59920385 235.48131442 76.11328125 233.265625 C76.89703125 232.585 77.68078125 231.904375 78.48828125 231.203125 C82.53073647 226.38327454 82.60106074 222.03769205 82.484375 215.89453125 C81.41119586 205.39996894 76.35628726 196.37812712 70.98046875 187.51953125 C69.05198911 184.15881255 67.57201504 180.84903627 66.11328125 177.265625 C67.43328125 175.945625 68.75328125 174.625625 70.11328125 173.265625 C73.72203267 174.7106878 75.19059864 176.43862576 77.23828125 179.703125 C77.73585938 180.48558594 78.2334375 181.26804687 78.74609375 182.07421875 C79.19726562 182.79738281 79.6484375 183.52054688 80.11328125 184.265625 C80.77328125 185.255625 81.43328125 186.245625 82.11328125 187.265625 C82.44328125 178.685625 82.77328125 170.105625 83.11328125 161.265625 C83.77328125 161.265625 84.43328125 161.265625 85.11328125 161.265625 C85.38140625 160.6675 85.64953125 160.069375 85.92578125 159.453125 C87.09821592 157.29337692 88.30697407 155.90772244 90.11328125 154.265625 C90.77328125 154.595625 91.43328125 154.925625 92.11328125 155.265625 C92.20633893 164.08932928 92.27722626 172.91286224 92.32052994 181.73695183 C92.34132326 185.83522871 92.36948771 189.93316759 92.41503906 194.03125 C92.45879445 197.99296472 92.4824803 201.95435621 92.49279022 205.9162941 C92.50012877 207.42084967 92.51445808 208.9253894 92.53620148 210.42980576 C92.67458342 220.40964838 92.06538857 228.74497703 86.10546875 237.0703125 C77.60909468 245.37857497 70.08252544 247.88919686 58.37988281 247.8137207 C52.06622335 247.55100373 47.33754754 245.87837366 42.11328125 242.265625 C41.20578125 241.70875 40.29828125 241.151875 39.36328125 240.578125 C33.59994815 234.65469931 29.99357392 227.89546594 29.96801758 219.71142578 C29.96465897 219.03790573 29.96130035 218.36438568 29.95783997 217.67045593 C29.94831047 215.43393118 29.94638492 213.19748133 29.9453125 210.9609375 C29.94209794 209.40070566 29.93873372 207.84047413 29.93522644 206.28024292 C29.92922784 202.99997257 29.92738695 199.71972857 29.92797852 196.43945312 C29.92807941 192.2660071 29.91450614 188.09273399 29.89720631 183.91932869 C29.88599533 180.68994395 29.88406218 177.46059955 29.88458824 174.23119736 C29.88341874 172.69484748 29.87905582 171.1584962 29.87125587 169.62216568 C29.79461518 152.94631216 32.52617271 138.64210046 39.67578125 123.515625 C39.9809668 122.86964355 40.28615234 122.22366211 40.60058594 121.55810547 C41.80279994 119.02060797 43.00734817 116.48452867 44.23046875 113.95703125 C46.71410976 108.26831065 47.43995056 102.31367625 46.11328125 96.265625 C35.42827705 78.63285986 11.20614946 71.589339 -6.80175781 64.13427734 C-9.84036453 62.86830982 -12.86381648 61.56860011 -15.88671875 60.265625 C-14.81357422 61.68488281 -14.81357422 61.68488281 -13.71875 63.1328125 C-8.0364573 70.6674401 -2.41445296 78.24171893 3.11328125 85.890625 C3.65235107 86.63554199 4.1914209 87.38045898 4.74682617 88.14794922 C5.76072181 89.5551376 6.76959764 90.96596045 7.77270508 92.38085938 C8.91279003 93.98374697 10.07873364 95.56819148 11.25 97.1484375 C13.79373373 101.40399204 15.33109084 105.83606837 16.92578125 110.515625 C17.24998047 111.42570312 17.57417969 112.33578125 17.90820312 113.2734375 C19.64522384 118.28736454 19.64522384 118.28736454 20.11328125 120.265625 C19.78328125 120.925625 19.45328125 121.585625 19.11328125 122.265625 C13.2457336 115.15245271 7.8365223 107.76567902 2.515625 100.24316406 C-4.70512307 90.06070247 -12.06398003 79.98634293 -19.57421875 70.015625 C-46.63310234 34.05660925 -46.63310234 34.05660925 -44.88671875 18.265625 C-42.64692155 10.73365582 -38.20205972 5.74939815 -31.88671875 1.265625 C-31.31566406 0.83121094 -30.74460938 0.39679688 -30.15625 -0.05078125 C-21.69020298 -5.41447992 -8.71716216 -3.90182036 0 0 Z " fill="#D0E4EE" transform="translate(196.88671875,88.734375)"/>
<path d="M0 0 C4.98962504 3.43441723 7.22166162 6.54720041 9 12.375 C9.24218262 13.12885986 9.48436523 13.88271973 9.73388672 14.65942383 C12.49285747 23.78641174 14.14141606 33.19559278 15.8203125 42.56982422 C17.61631477 52.54095328 19.79211351 62.37634053 23 72 C23.56296498 69.89595769 24.12532853 67.79175446 24.6875 65.6875 C24.95216064 64.70088379 24.95216064 64.70088379 25.22216797 63.69433594 C26.27425633 59.76155118 27.30392011 55.82408809 28.30859375 51.87890625 C28.52749268 51.02659424 28.7463916 50.17428223 28.97192383 49.29614258 C29.40216298 47.61877281 29.82789663 45.94023995 30.2487793 44.26049805 C30.44769775 43.48875244 30.64661621 42.71700684 30.8515625 41.921875 C31.11187256 40.89465332 31.11187256 40.89465332 31.37744141 39.84667969 C32 38 32 38 34 35 C36.5625 34.75 36.5625 34.75 39 35 C40 36 40 36 40.01953125 38.23046875 C39.53451976 45.15789705 38.15543546 51.28550505 36.12109375 57.91015625 C33.74717794 66.09672081 32.49267514 74.61750117 31 83 C35.92368809 82.07465808 35.92368809 82.07465808 39.63671875 78.99609375 C43.10597161 70.54865649 45.12957831 61.91323854 47 53 C50.24045767 53.5586996 52.00070493 54.34449458 54 57 C55.85825415 65.908689 51.80554672 75.47402607 47.3984375 83.01953125 C44.90850365 86.54577836 41.8787325 89.06063375 38 91 C36.29297265 91.06996014 34.58331997 91.08440154 32.875 91.0625 C31.50988281 91.04896484 31.50988281 91.04896484 30.1171875 91.03515625 C29.06917969 91.01775391 29.06917969 91.01775391 28 91 C27.62875 92.918125 27.62875 92.918125 27.25 94.875 C25.5793045 102.2821395 23.55818028 110.52851345 17 115 C14.15843568 115.69306447 11.84354788 115.67758677 9 115 C2.24464058 110.75826269 0.16700171 101.5418445 -1.72265625 94.1875 C-2.16797661 92.12913033 -2.58698129 90.06509357 -3 88 C-3.33 87.67 -3.66 87.34 -4 87 C-4.49691277 84.23105836 -4.94953244 81.46753735 -5.375 78.6875 C-6.2301057 73.27200803 -7.17330038 67.98193391 -8.625 62.6875 C-10.2784085 56.51535202 -10.70226791 50.36530675 -11 44 C-11.66 44 -12.32 44 -13 44 C-13.09796875 44.825 -13.1959375 45.65 -13.296875 46.5 C-16.7507852 73.17847877 -16.7507852 73.17847877 -24 81 C-27.13871188 82.56935594 -29.53855822 82.35201103 -33 82 C-40.40055149 76.28139203 -41.98939605 67.88900092 -44.125 59.25 C-44.64655754 57.17140238 -45.16990472 55.09325273 -45.6953125 53.015625 C-46.0358667 51.64325684 -46.0358667 51.64325684 -46.38330078 50.24316406 C-46.92539346 47.98745301 -46.92539346 47.98745301 -48 46 C-48.99 45.67 -49.98 45.34 -51 45 C-51.20625 45.825 -51.4125 46.65 -51.625 47.5 C-53.95160213 53.42225996 -57.63191739 58.49131196 -63 62 C-68.7751817 63.29646936 -75.09866041 63.57741134 -81 63 C-81.66 62.34 -82.32 61.68 -83 61 C-82.44444444 56.44444444 -82.44444444 56.44444444 -81 55 C-77.76744024 54.75344883 -74.53572508 54.61578909 -71.296875 54.4765625 C-67.71001526 53.95808278 -65.83245025 53.23926695 -63 51 C-61.49276793 48.6792161 -61.49276793 48.6792161 -60.4375 46.0625 C-57.01070817 38.83987721 -57.01070817 38.83987721 -54 37 C-50.81325492 36.26131005 -48.17554568 36.17446819 -45 37 C-37.92144442 42.3575537 -36.46887942 50.75175134 -34.58789062 58.94140625 C-33.48517676 63.55435268 -32.09040378 67.73186487 -30 72 C-29.01 72.495 -29.01 72.495 -28 73 C-25.0943185 60.53975402 -22.60772863 48.01163615 -20.28271484 35.43139648 C-19.04744856 28.88281023 -17.69675011 22.37817587 -16.0625 15.91796875 C-15.76472656 14.73356201 -15.46695313 13.54915527 -15.16015625 12.32885742 C-12.57052688 4.89838679 -8.50856129 -1.36136981 0 0 Z " fill="#D6E7F1" transform="translate(153,162)"/>
<path d="M0 0 C6.79732627 4.07839576 8.78027926 10.31643349 10.72076416 17.76763916 C11.36592244 20.71505472 11.948585 23.66791145 12.5078125 26.6328125 C12.71936981 27.70949188 12.93092712 28.78617126 13.14889526 29.89547729 C13.81680159 33.30360088 14.47141792 36.71410342 15.125 40.125 C15.78842047 43.54245978 16.45460852 46.95936287 17.12252808 50.37594604 C17.53534154 52.4922868 17.94512028 54.60922258 18.35134888 56.72683716 C19.40963312 62.20163433 20.58973437 67.604793 22 73 C24.48879629 70.80197311 25.53382922 69.07650022 26.46484375 65.90234375 C26.70541504 65.10513916 26.94598633 64.30793457 27.19384766 63.48657227 C27.43925293 62.64537842 27.6846582 61.80418457 27.9375 60.9375 C28.46232252 59.21537546 28.98964623 57.49401109 29.51953125 55.7734375 C29.89972412 54.5354541 29.89972412 54.5354541 30.28759766 53.27246094 C34.50270659 39.82687014 34.50270659 39.82687014 39 37 C42.72537696 36.52586111 45.19365885 36.68121396 48.6875 38.0625 C51.17500421 40.14662515 52.52721137 42.29176743 54.02734375 45.15234375 C56.65788961 50.39757166 56.65788961 50.39757166 61 54 C64.6020895 54.2781025 68.20396821 54.44732224 71.8125 54.62109375 C75 55 75 55 77 57 C76.44444444 61.55555556 76.44444444 61.55555556 75 63 C72.77356538 63.12680356 70.54251223 63.17584894 68.3125 63.1875 C67.09175781 63.20167969 65.87101562 63.21585938 64.61328125 63.23046875 C59.77886027 62.92211109 56.29828953 62.03863162 52.5 59 C49.64749236 55.57699084 47.50702247 51.98877886 45.33203125 48.109375 C44.17290967 45.8708386 44.17290967 45.8708386 42 45 C41.58268883 46.52065661 41.16621529 48.04154307 40.75 49.5625 C40.47414063 50.56152344 40.19828125 51.56054688 39.9140625 52.58984375 C39.27598692 54.9703565 38.6690088 57.35932711 38.0859375 59.75390625 C33.61438022 77.76737479 33.61438022 77.76737479 28.05859375 81.19921875 C24.79669553 82.46807859 22.46109098 82.48576716 19 82 C10.68146519 75.22909957 9.60873085 61.81994669 7.61328125 51.8984375 C7.04704088 48.9527995 7.04704088 48.9527995 6 46 C4.3810958 53.46371173 2.79888316 60.93309342 1.28125 68.41796875 C1.13558594 69.13437531 0.98992187 69.85078186 0.83984375 70.58889771 C0.24195089 73.52980778 -0.35578168 76.47073336 -0.94775391 79.4128418 C-5.99971641 104.49321303 -5.99971641 104.49321303 -10.0625 110.125 C-10.56910156 110.84945312 -11.07570313 111.57390625 -11.59765625 112.3203125 C-13.89942415 115.0773047 -15.12318243 115.0121163 -18.8125 115.375 C-22.07475565 115.30420964 -22.92794504 115.04912838 -25.75 113.125 C-30.30518734 106.79835091 -32.32556687 99.5349491 -34 92 C-34.94359375 91.99613281 -34.94359375 91.99613281 -35.90625 91.9921875 C-41.76235747 91.72760433 -45.73092006 90.74331048 -50.25 86.92578125 C-56.97582584 79.52437023 -60.66165665 67.8374289 -60.29296875 57.91796875 C-59.88316644 55.23512961 -59.06239831 53.75685782 -57 52 C-56.01 52 -55.02 52 -54 52 C-52.2500893 56.99974487 -50.77506474 61.89049458 -49.625 67.0625 C-48.36415347 72.17774784 -46.87666769 77.24838611 -43 81 C-41.01233746 81.70259666 -39.01260879 82.37242506 -37 83 C-37.79227286 79.03325392 -38.59215452 75.06812113 -39.39868164 71.10424805 C-39.67121197 69.7596043 -39.94177073 68.41455922 -40.21020508 67.0690918 C-41.59215155 60.14906561 -43.05206595 53.43969329 -45.42651367 46.79077148 C-46.16409479 44.48759672 -46.33608934 42.41050145 -46.25 40 C-46.23453125 39.2575 -46.2190625 38.515 -46.203125 37.75 C-46 36 -46 36 -45 35 C-43.33382885 34.95936168 -41.66611905 34.957279 -40 35 C-37.71273462 39.23663015 -36.29614956 43.17419922 -35.2109375 47.859375 C-34.90929687 49.13941406 -34.60765625 50.41945312 -34.296875 51.73828125 C-33.98918373 53.07542894 -33.68189643 54.41266966 -33.375 55.75 C-32.76129591 58.39145831 -32.14276534 61.03172313 -31.5234375 63.671875 C-31.25450684 64.8381543 -30.98557617 66.00443359 -30.70849609 67.20605469 C-30.12323443 69.9315648 -30.12323443 69.9315648 -29 72 C-26.07134511 64.08565882 -24.52034514 56.02281555 -23 47.75 C-15.7116553 8.508717 -15.7116553 8.508717 -8 1 C-5.09704195 -0.45147903 -3.22738221 -0.37239025 0 0 Z " fill="#CCE2EF" transform="translate(369,162)"/>
<path d="M0 0 C2.54352803 1.45344459 3.20873602 2.55993417 4.21484375 5.265625 C4.87484375 5.265625 5.53484375 5.265625 6.21484375 5.265625 C6.21484375 2.955625 6.21484375 0.645625 6.21484375 -1.734375 C9.84484375 -1.734375 13.47484375 -1.734375 17.21484375 -1.734375 C17.21484375 15.095625 17.21484375 31.925625 17.21484375 49.265625 C13.58484375 49.265625 9.95484375 49.265625 6.21484375 49.265625 C6.21484375 47.615625 6.21484375 45.965625 6.21484375 44.265625 C4.69890625 45.44125 4.69890625 45.44125 3.15234375 46.640625 C-4.13704389 51.75623899 -12.10173006 52.1457745 -20.78515625 51.265625 C-23.79102186 50.33260431 -26.19736382 49.03817017 -28.78515625 47.265625 C-29.67203125 46.70875 -30.55890625 46.151875 -31.47265625 45.578125 C-37.30128366 39.74949759 -40.73921269 31.69599893 -41.22265625 23.515625 C-41.03329104 16.50911216 -38.37603769 11.11801597 -33.6953125 5.96484375 C-23.20243921 -3.84644119 -13.22406468 -4.78115394 0 0 Z " fill="#F5F7F7" transform="translate(187.78515625,391.734375)"/>
<path d="M0 0 C5.28 0 10.56 0 16 0 C19.14778295 6.72480903 22.25464743 13.41935689 24.94873047 20.33862305 C28.66024321 29.7346287 32.68555684 39.01043572 36.625 48.3125 C37.10195313 49.43978516 37.57890625 50.56707031 38.0703125 51.72851562 C38.534375 52.82486328 38.9984375 53.92121094 39.4765625 55.05078125 C39.91387695 56.0867041 40.35119141 57.12262695 40.80175781 58.18994141 C41.78970587 60.50682856 42.80736215 62.80654858 43.8359375 65.10546875 C45 68 45 68 45 71 C40.38 71 35.76 71 31 71 C28.8829823 65.87818299 27.08927353 61.44636767 26 56 C14.12 56 2.24 56 -10 56 C-10.99 58.97 -11.98 61.94 -13 65 C-13.66 66.98 -14.32 68.96 -15 71 C-19.62 71 -24.24 71 -29 71 C-28.08476911 66.42384556 -27.29434245 64.78704718 -25 61 C-23.97380735 58.40304846 -22.99759138 55.81606395 -22.0625 53.1875 C-18.93348127 44.59999651 -18.93348127 44.59999651 -17 41 C-14.63668118 36.56755142 -13.01750115 31.84338937 -11.28564453 27.14038086 C-7.88899848 17.93514861 -4.02567359 8.9459413 0 0 Z " fill="#F4F5F6" transform="translate(359,371)"/>
<path d="M0 0 C9.22939128 5.20595352 12.52088894 13.46167676 15.41015625 23.34765625 C17.0740113 30.73024274 17.30568086 38.33909595 17.6875 45.875 C20.3275 46.535 22.9675 47.195 25.6875 47.875 C25.3575 42.265 25.0275 36.655 24.6875 30.875 C33.98148591 40.16898591 51.30477261 58.77590582 51.78125 72.59375 C51.7503125 73.3465625 51.719375 74.099375 51.6875 74.875 C51.15382813 74.51148438 50.62015625 74.14796875 50.0703125 73.7734375 C47.62174364 72.12128896 45.15719425 70.49538763 42.6875 68.875 C41.98753906 68.40707031 41.28757812 67.93914062 40.56640625 67.45703125 C29.93169781 60.68948951 17.9092479 55.95406407 6.25 51.25 C-7.73198108 45.48342023 -21.70016646 37.79972497 -29.75 24.5 C-31.03446158 18.50584598 -31.3878279 13.01241162 -28.25 7.5625 C-21.41231093 -2.06091424 -10.68176658 -4.98908858 0 0 Z " fill="#8296B7" transform="translate(191.3125,96.125)"/>
<path d="M0 0 C1.70349609 0.00966797 1.70349609 0.00966797 3.44140625 0.01953125 C6.4375 0.1875 6.4375 0.1875 9.4375 1.1875 C9.4375 1.8475 9.4375 2.5075 9.4375 3.1875 C10.159375 3.39375 10.88125 3.6 11.625 3.8125 C15.42206 5.66884044 16.9356308 7.78217803 19.4375 11.1875 C21.68861906 17.94085717 20.75888551 23.87743665 17.63671875 30.1875 C15.93443338 33.02649059 13.94529735 35.03795942 11.4375 37.1875 C10.14199219 38.33992188 10.14199219 38.33992188 8.8203125 39.515625 C5.07892688 42.62561599 0.95580642 44.88236388 -3.3125 47.1875 C-4.1065625 47.62175293 -4.900625 48.05600586 -5.71875 48.50341797 C-21.67269583 57.1875 -21.67269583 57.1875 -24.5625 57.1875 C-24.5625 59.1675 -24.5625 61.1475 -24.5625 63.1875 C-18.55708338 62.68505478 -13.99366864 60.78863251 -8.625 58.125 C-7.45614258 57.55942383 -7.45614258 57.55942383 -6.26367188 56.98242188 C-4.35910471 56.05934945 -2.46019987 55.12460938 -0.5625 54.1875 C-0.5625 57.68174096 -1.15600983 58.35173661 -3.203125 61.07421875 C-3.77393799 61.84080811 -4.34475098 62.60739746 -4.93286133 63.3972168 C-5.55314209 64.21488525 -6.17342285 65.03255371 -6.8125 65.875 C-7.75355591 67.13147339 -7.75355591 67.13147339 -8.71362305 68.41333008 C-10.01437261 70.14880944 -11.31804209 71.88210386 -12.62451172 73.61328125 C-14.47155133 76.0666934 -16.30308861 78.53076975 -18.12890625 81 C-19.21072846 82.45848841 -20.2927496 83.91682929 -21.375 85.375 C-21.88385742 86.06360107 -22.39271484 86.75220215 -22.91699219 87.46166992 C-24.1078337 89.05541692 -25.33153233 90.62453755 -26.5625 92.1875 C-26.8925 92.1875 -27.2225 92.1875 -27.5625 92.1875 C-27.52407311 84.77089882 -27.4641896 77.35477611 -27.37859726 69.93856049 C-27.33946991 66.49304088 -27.30711501 63.04776355 -27.29150391 59.60205078 C-27.08966243 18.07944117 -27.08966243 18.07944117 -15.828125 6.38671875 C-10.67422665 1.77243796 -7.05636813 -0.08830495 0 0 Z " fill="#7D8EB5" transform="translate(334.5625,93.8125)"/>
<path d="M0 0 C4.97529213 1.54595039 9.63858775 3.5433756 14.375 5.6875 C21.32019755 8.81541875 21.32019755 8.81541875 28.3125 11.8359375 C42.21462399 17.71989254 55.33438263 24.00157395 64 37 C65.35202044 46.09411646 62.87494772 52.92155537 59 61 C57.77069646 63.65743476 56.56680431 66.32555319 55.375 69 C55.07384277 69.67385742 54.77268555 70.34771484 54.46240234 71.04199219 C51.92317761 76.86967491 50.24063688 82.76136885 49 89 C47 88 47 88 46.359375 86.1015625 C46.15828125 85.28429687 45.9571875 84.46703125 45.75 83.625 C44.04828096 77.55117203 41.12067517 72.441623 38 67 C36.39138672 64.06228425 35.48449625 61.31404911 34.6875 58.0625 C34.13308889 56.03943254 33.57021684 54.01866945 33 52 C32.731875 51.02933594 32.46375 50.05867188 32.1875 49.05859375 C28.82977352 38.78867252 22.42657117 30.96743577 15.90478516 22.49902344 C12.75560709 18.36739223 9.72233199 14.15344427 6.6875 9.9375 C6.130625 9.16962158 5.57375 8.40174316 5 7.6105957 C4.48824219 6.90249756 3.97648438 6.19439941 3.44921875 5.46484375 C2.99893311 4.842146 2.54864746 4.21944824 2.0847168 3.57788086 C1 2 1 2 0 0 Z " fill="#7D8EB4" transform="translate(180,148)"/>
<path d="M0 0 C3.96 0 7.92 0 12 0 C12.33 8.25 12.66 16.5 13 25 C14.65 23.68 16.3 22.36 18 21 C23.87358842 18.1001466 30.20383029 18.01098231 36.50390625 19.65234375 C42.79099574 22.13101017 46.99396732 26.07000171 50.06225586 32.08105469 C51.29887926 35.93033075 51.24796805 39.58526951 51.1953125 43.58203125 C51.19106766 44.80329964 51.19106766 44.80329964 51.18673706 46.04924011 C51.17558584 48.637146 51.15049083 51.22469958 51.125 53.8125 C51.11496365 55.57226061 51.10583894 57.33202667 51.09765625 59.09179688 C51.0756631 63.39466598 51.04116836 67.69727336 51 72 C46.71 72 42.42 72 38 72 C38.00112793 70.90534424 38.00225586 69.81068848 38.00341797 68.68286133 C37.99973892 64.61023495 37.95687756 60.53878953 37.90234375 56.46655273 C37.88420761 54.70621357 37.87661094 52.94573228 37.87988281 51.18530273 C37.88274702 48.64976576 37.84736535 46.11716122 37.8046875 43.58203125 C37.81378143 42.79850784 37.82287537 42.01498444 37.83224487 41.2077179 C37.72717777 36.97715591 37.72717777 36.97715591 35.69975281 33.38136292 C31.6019366 29.84477304 28.70039642 29.18897313 23.4765625 29.43359375 C19.33711526 30.38031276 16.69876577 32.81430095 14 36 C12.4725361 39.0549278 12.76008168 42.2763314 12.68359375 45.6328125 C12.66281265 46.38464813 12.64203156 47.13648376 12.62062073 47.91110229 C12.55517295 50.31564085 12.49626262 52.72028967 12.4375 55.125 C12.39431023 56.75391771 12.35069579 58.38282422 12.30664062 60.01171875 C12.19949649 64.00769915 12.09821567 68.00379059 12 72 C8.04 72 4.08 72 0 72 C0 48.24 0 24.48 0 0 Z " fill="#F3F4F5" transform="translate(271,370)"/>
<path d="M0 0 C5.16664645 -1.4327675 10.04622453 -2.37580193 15 0 C20.41809618 5.53203729 23.97169698 12.67389295 27.59912109 19.45019531 C28.77391386 21.58849012 30.00552427 23.58425858 31.39453125 25.5859375 C33 28 33 28 33 30 C36.35439125 26.96361474 38.28698048 23.92649292 40.36328125 19.921875 C41.00795694 18.74828582 41.65584775 17.57645808 42.30664062 16.40625 C43.31922005 14.57992493 44.31102297 12.75292567 45.25219727 10.88867188 C47.36411857 6.73854572 49.4718735 3.1318164 53 0 C58.23260388 -1.06978263 62.70084415 -0.79819921 68 0 C63.10416274 8.77504711 57.67910945 17.10742569 52.06396484 25.4362793 C50.90274481 27.15941638 49.75090259 28.88891512 48.60913086 30.625 C47 33 47 33 45.48657227 34.875 C40.60916453 41.29333022 41.21736374 48.79334456 41.1875 56.5 C41.16432103 57.90889229 41.13894869 59.31775029 41.11132812 60.7265625 C41.05269494 64.15074077 41.02342699 67.5753999 41 71 C36.71 71 32.42 71 28 71 C28.01353516 67.92558594 28.01353516 67.92558594 28.02734375 64.7890625 C28.00645682 62.76999248 27.98531028 60.75091702 27.95727539 58.73193359 C27.94426041 57.34527577 27.9432858 55.95844401 27.95532227 54.57177734 C28.03075159 44.62229005 26.45388759 38.67648048 20 31 C18.88188289 29.36141652 17.78781749 27.70615486 16.71875 26.03515625 C16.18983154 25.22014648 15.66091309 24.40513672 15.1159668 23.56542969 C14.58269775 22.73946289 14.04942871 21.91349609 13.5 21.0625 C12.93901611 20.19657227 12.37803223 19.33064453 11.80004883 18.43847656 C7.8354024 12.31218255 3.89297901 6.17214126 0 0 Z " fill="#F3F5F5" transform="translate(85,371)"/>
<path d="M0 0 C2.875 2 2.875 2 5 4 C4.67 4.99 4.34 5.98 4 7 C3.505 5.515 3.505 5.515 3 4 C0.54775306 4.10613836 0.54775306 4.10613836 -2 5 C-3.25783601 7.13569881 -3.25783601 7.13569881 -4 10 C-4.474375 11.175625 -4.94875 12.35125 -5.4375 13.5625 C-8.70537465 22.45111904 -10.31456535 31.62963067 -11.875 40.9375 C-13.21515558 48.83419861 -14.67323829 56.68614474 -16.4375 64.5 C-16.61845215 65.35327881 -16.7994043 66.20655762 -16.98583984 67.08569336 C-18.31246504 72.75014545 -20.27286616 76.5109006 -24 81 C-27.13871188 82.56935594 -29.53855822 82.35201103 -33 82 C-40.40055149 76.28139203 -41.98939605 67.88900092 -44.125 59.25 C-44.64655754 57.17140238 -45.16990472 55.09325273 -45.6953125 53.015625 C-46.0358667 51.64325684 -46.0358667 51.64325684 -46.38330078 50.24316406 C-46.92539346 47.98745301 -46.92539346 47.98745301 -48 46 C-48.99 45.67 -49.98 45.34 -51 45 C-51.20625 45.825 -51.4125 46.65 -51.625 47.5 C-53.95160213 53.42225996 -57.63191739 58.49131196 -63 62 C-68.7751817 63.29646936 -75.09866041 63.57741134 -81 63 C-81.66 62.34 -82.32 61.68 -83 61 C-82.44444444 56.44444444 -82.44444444 56.44444444 -81 55 C-77.76744024 54.75344883 -74.53572508 54.61578909 -71.296875 54.4765625 C-67.71001526 53.95808278 -65.83245025 53.23926695 -63 51 C-61.49276793 48.6792161 -61.49276793 48.6792161 -60.4375 46.0625 C-57.01070817 38.83987721 -57.01070817 38.83987721 -54 37 C-50.81325492 36.26131005 -48.17554568 36.17446819 -45 37 C-37.92144442 42.3575537 -36.46887942 50.75175134 -34.58789062 58.94140625 C-33.48517676 63.55435268 -32.09040378 67.73186487 -30 72 C-29.01 72.495 -29.01 72.495 -28 73 C-25.0943185 60.53975402 -22.60772863 48.01163615 -20.28271484 35.43139648 C-19.04744856 28.88281023 -17.69675011 22.37817587 -16.0625 15.91796875 C-15.76472656 14.73356201 -15.46695313 13.54915527 -15.16015625 12.32885742 C-12.53954259 4.80948299 -8.54748041 -1.22106863 0 0 Z " fill="#E0ECF2" transform="translate(153,162)"/>
<path d="M0 0 C6.79732627 4.07839576 8.78027926 10.31643349 10.72076416 17.76763916 C11.36592244 20.71505472 11.948585 23.66791145 12.5078125 26.6328125 C12.71936981 27.70949188 12.93092712 28.78617126 13.14889526 29.89547729 C13.81680159 33.30360088 14.47141792 36.71410342 15.125 40.125 C15.78842047 43.54245978 16.45460852 46.95936287 17.12252808 50.37594604 C17.53534154 52.4922868 17.94512028 54.60922258 18.35134888 56.72683716 C19.40963312 62.20163433 20.58973437 67.604793 22 73 C24.48879629 70.80197311 25.53382922 69.07650022 26.46484375 65.90234375 C26.70541504 65.10513916 26.94598633 64.30793457 27.19384766 63.48657227 C27.43925293 62.64537842 27.6846582 61.80418457 27.9375 60.9375 C28.46232252 59.21537546 28.98964623 57.49401109 29.51953125 55.7734375 C29.89972412 54.5354541 29.89972412 54.5354541 30.28759766 53.27246094 C34.50270659 39.82687014 34.50270659 39.82687014 39 37 C42.72537696 36.52586111 45.19365885 36.68121396 48.6875 38.0625 C51.17500421 40.14662515 52.52721137 42.29176743 54.02734375 45.15234375 C56.65788961 50.39757166 56.65788961 50.39757166 61 54 C64.6020895 54.2781025 68.20396821 54.44732224 71.8125 54.62109375 C75 55 75 55 77 57 C76.44444444 61.55555556 76.44444444 61.55555556 75 63 C72.77356538 63.12680356 70.54251223 63.17584894 68.3125 63.1875 C67.09175781 63.20167969 65.87101562 63.21585938 64.61328125 63.23046875 C59.77886027 62.92211109 56.29828953 62.03863162 52.5 59 C49.64749236 55.57699084 47.50702247 51.98877886 45.33203125 48.109375 C44.17290967 45.8708386 44.17290967 45.8708386 42 45 C41.58268883 46.52065661 41.16621529 48.04154307 40.75 49.5625 C40.47414063 50.56152344 40.19828125 51.56054688 39.9140625 52.58984375 C39.27598692 54.9703565 38.6690088 57.35932711 38.0859375 59.75390625 C33.61438022 77.76737479 33.61438022 77.76737479 28.05859375 81.19921875 C24.79669553 82.46807859 22.46109098 82.48576716 19 82 C8.50519367 73.45771578 7.82191347 52.73080454 5.4375 40.25 C4.85724385 37.21931654 4.27474834 34.18915777 3.68482971 31.16033936 C3.32066343 29.29039059 2.96183238 27.41939131 2.60948181 25.54718018 C0.99351622 15.47788372 0.99351622 15.47788372 -4 7 C-4 6.01 -4 5.02 -4 4 C-7.18490007 3.7226499 -7.18490007 3.7226499 -10 6 C-9.6875 4.125 -9.6875 4.125 -9 2 C-5.45870816 -0.36086122 -4.17249782 -0.57269578 0 0 Z " fill="#CFE4EF" transform="translate(369,162)"/>
<path d="M0 0 C3.54176725 2.1831736 5.88170223 5.03265306 8.3125 8.375 C7.24142883 9.24449317 6.15504056 10.09514205 5.0625 10.9375 C4.45921875 11.41316406 3.8559375 11.88882812 3.234375 12.37890625 C1.3125 13.375 1.3125 13.375 -0.7890625 13.125 C-2.6875 12.375 -2.6875 12.375 -4.8125 10.8125 C-8.95998527 8.73875736 -13.11922387 8.75242078 -17.6875 9.375 C-19.96277322 11.19110691 -19.96277322 11.19110691 -19.75 13.8125 C-18.87918103 16.65593911 -18.87918103 16.65593911 -15.8125 18 C-12.64114103 19.17046032 -9.39819837 19.97745485 -6.125 20.8125 C0.21014679 22.47873039 5.07495308 25.31642837 9.3125 30.375 C10.43357551 35.92625665 10.11136707 40.88378148 7.4375 45.875 C0.55555685 52.33637996 -8.1477694 53.03103416 -17.19140625 52.7578125 C-25.10657966 51.89112312 -29.46910484 48.11523468 -34.6875 42.375 C-33.21190331 37.94820993 -30.78692632 37.46067304 -26.6875 35.375 C-24.6875 35.375 -24.6875 35.375 -22.125 37.8125 C-21.320625 38.658125 -20.51625 39.50375 -19.6875 40.375 C-17.81506019 42.24743981 -14.75090482 41.54880392 -12.25 41.5625 C-11.07566406 41.57667969 -9.90132812 41.59085937 -8.69140625 41.60546875 C-5.57253098 41.69399256 -5.57253098 41.69399256 -3.6875 39.375 C-3.10399495 36.91790625 -3.10399495 36.91790625 -3.6875 34.375 C-7.51502392 31.52069848 -11.61228722 30.44405962 -16.1875 29.375 C-22.47052916 27.90688626 -27.09304691 26.57275966 -31 21.1875 C-33.14951125 17.02885375 -33.2771112 14.0181882 -32.6875 9.375 C-30.57374915 4.88327944 -27.62267706 1.76920998 -23.359375 -0.70703125 C-16.39142029 -3.1009923 -6.74824445 -3.04635035 0 0 Z " fill="#F3F5F6" transform="translate(250.6875,390.625)"/>
<path d="M0 0 C0.66 0 1.32 0 2 0 C5.86401869 7.4133098 7.48733352 14.96100168 9.0625 23.125 C9.32144043 24.41801025 9.58038086 25.71102051 9.84716797 27.04321289 C10.89124008 32.27048999 11.9067116 37.50307241 12.91015625 42.73828125 C15.06774429 53.90350461 17.34956276 64.81330562 22.94921875 74.81640625 C24.87014754 78.80822481 25.2427781 81.0964967 24.07421875 85.4453125 C23.61660156 86.65960938 23.15898437 87.87390625 22.6875 89.125 C22.23761719 90.34445312 21.78773438 91.56390625 21.32421875 92.8203125 C20 96 20 96 18 99 C15 98 15 98 13.5 95.1875 C9.89492279 85.9651823 8.34409917 75.94683425 6.5625 66.25 C2.71705723 44.03728414 2.71705723 44.03728414 -5 23 C-5.5787136 15.1873664 -4.39835051 6.59752577 0 0 Z " fill="#7E92B4" transform="translate(149,170)"/>
<path d="M0 0 C0.99 0.33 1.98 0.66 3 1 C6.39281689 8.01762127 7.85880164 16.26543207 7 24 C6.23510742 25.85693359 6.23510742 25.85693359 5.23046875 27.7734375 C2.04526422 34.63409538 0.6570595 42.0341746 -1 49.375 C-1.35317176 50.90656727 -1.70701691 52.43797941 -2.06152344 53.96923828 C-4.06157322 62.65034233 -5.93811141 71.35087711 -7.69433594 80.0847168 C-8.96608846 86.23656729 -10.79476016 92.12327043 -13 98 C-14.32 98 -15.64 98 -17 98 C-17.64633275 96.22934889 -18.2920483 94.45847247 -18.9375 92.6875 C-19.29714844 91.70136719 -19.65679687 90.71523438 -20.02734375 89.69921875 C-23.47085824 80.14312031 -23.47085824 80.14312031 -21.05859375 74.98828125 C-20.64738281 74.24964844 -20.23617188 73.51101562 -19.8125 72.75 C-14.40246192 62.49062806 -12.50132331 50.73359382 -10.3046875 39.44140625 C-10.1559317 38.68011917 -10.0071759 37.91883209 -9.85391235 37.13447571 C-9.10766481 33.3014359 -8.37780426 29.46636352 -7.67431641 25.62524414 C-5.9811205 16.60751046 -3.66222625 8.45738466 0 0 Z " fill="#7886AE" transform="translate(365,170)"/>
<path d="M0 0 C5.02089988 1.55711452 9.72171176 3.58539758 14.5 5.75 C16.09080327 6.46430507 17.68195391 7.17783698 19.2734375 7.890625 C20.06331055 8.24447266 20.85318359 8.59832031 21.66699219 8.96289062 C27.08424191 11.37106108 32.54293218 13.68381687 38 16 C37.91298828 17.76150391 37.91298828 17.76150391 37.82421875 19.55859375 C37.31967767 34.34969539 40.26228915 46.18291745 46.375 59.5625 C48.86462432 65.11480795 49.59756253 68.14227074 48 74 C47.814375 74.99 47.62875 75.98 47.4375 77 C47.293125 77.66 47.14875 78.32 47 79 C43.08955976 77.69651992 42.79969948 76.28330719 40.9375 72.6875 C40.43089844 71.72199219 39.92429688 70.75648438 39.40234375 69.76171875 C38.93957031 68.85035156 38.47679687 67.93898438 38 67 C37.63648438 66.32453125 37.27296875 65.6490625 36.8984375 64.953125 C35.85707879 62.68930172 35.2806565 60.48243295 34.6875 58.0625 C34.13308889 56.03943254 33.57021684 54.01866945 33 52 C32.731875 51.02933594 32.46375 50.05867188 32.1875 49.05859375 C28.82977352 38.78867252 22.42657117 30.96743577 15.90478516 22.49902344 C12.75560709 18.36739223 9.72233199 14.15344427 6.6875 9.9375 C6.130625 9.16962158 5.57375 8.40174316 5 7.6105957 C4.48824219 6.90249756 3.97648438 6.19439941 3.44921875 5.46484375 C2.99893311 4.842146 2.54864746 4.21944824 2.0847168 3.57788086 C1 2 1 2 0 0 Z " fill="#A7C8E1" transform="translate(180,148)"/>
<path d="M0 0 C3.67007433 1.8310566 6.20141342 4.62141193 8.015625 8.28125 C9.7353441 13.63374849 9.62361545 19.17337138 7.05078125 24.2109375 C3.39563236 29.02034393 -0.71190506 31.82239371 -6.7421875 32.6796875 C-12.19399778 32.98726495 -15.57725954 32.78080892 -19.82421875 29.1484375 C-23.8752701 24.9894688 -26.43100167 21.89380143 -26.76171875 15.9609375 C-26.52115846 9.66453347 -23.79835536 6.15921173 -19.94921875 1.3984375 C-14.68090642 -2.67069376 -6.05516718 -1.73004777 0 0 Z " fill="#7884AD" transform="translate(185.32421875,400.6640625)"/>
<path d="M0 0 C4.29 0 8.58 0 13 0 C13 23.43 13 46.86 13 71 C8.71 71 4.42 71 0 71 C0 47.57 0 24.14 0 0 Z " fill="#F4F5F7" transform="translate(414,371)"/>
<path d="M0 0 C1.90127019 3.33329072 2.65579824 6.47954909 3.3125 10.25 C3.51488281 11.32765625 3.71726562 12.4053125 3.92578125 13.515625 C4.00179661 17.08434603 3.22856165 19.29199528 1.87084961 22.54443359 C0.14090473 27.42242225 -0.58228285 32.57347101 -1.50415039 37.65447998 C-2.13512831 41.11353913 -2.79891678 44.56630171 -3.4609375 48.01953125 C-3.65746918 49.04663208 -3.65746918 49.04663208 -3.85797119 50.09448242 C-9.50880133 79.52783711 -9.50880133 79.52783711 -16 86 C-19.23425278 87.61712639 -22.50313888 87.56596596 -26 87 C-33.57800239 81.83318019 -35.35691819 71.48925599 -37 63 C-33.04 60.525 -33.04 60.525 -29 58 C-28.73445313 59.10859375 -28.46890625 60.2171875 -28.1953125 61.359375 C-27.83879379 62.82297811 -27.48200897 64.28651641 -27.125 65.75 C-26.95097656 66.47960937 -26.77695312 67.20921875 -26.59765625 67.9609375 C-25.72091402 71.53285028 -24.87313177 74.79373841 -23 78 C-22.34 78 -21.68 78 -21 78 C-16.4365046 64.09913989 -13.25298362 50.11896195 -10.375 35.78125 C-6.03255126 14.16444475 -6.03255126 14.16444475 -1.83203125 5.796875 C-0.94879028 3.88940625 -0.44885294 2.04930839 0 0 Z " fill="#98BAD9" transform="translate(372,190)"/>
<path d="M0 0 C0.33 0 0.66 0 1 0 C1.226875 1.03125 1.45375 2.0625 1.6875 3.125 C2.64323399 7.00822658 3.97688177 10.66082563 5.39453125 14.3984375 C8.00831896 21.66111097 9.60876778 28.90533865 11 36.5 C11.50441752 39.12673173 12.01082931 41.75300846 12.51953125 44.37890625 C12.76654785 45.66297363 13.01356445 46.94704102 13.26806641 48.27001953 C14.32914878 53.67736328 15.48233707 59.06061923 16.6875 64.4375 C16.87763672 65.31148438 17.06777344 66.18546875 17.26367188 67.0859375 C18.38150566 72.0168698 19.85941147 76.41654964 22 81 C22.66 81 23.32 81 24 81 C26.94776396 74.80520671 29.17778624 68.61242722 31 62 C33.31 63.32 35.62 64.64 38 66 C34.32094595 85.00844595 34.32094595 85.00844595 27 90 C24.15843568 90.69306447 21.84354788 90.67758677 19 90 C12.24464058 85.75826269 10.16700171 76.5418445 8.27734375 69.1875 C7.83202339 67.12913033 7.41301871 65.06509357 7 63 C6.67 62.67 6.34 62.34 6 62 C5.50308723 59.23105836 5.05046756 56.46753735 4.625 53.6875 C3.7698943 48.27200803 2.82669962 42.98193391 1.375 37.6875 C-0.07928944 32.30738257 -0.47382785 27.07767047 -0.69140625 21.51953125 C-0.79324219 20.68808594 -0.89507812 19.85664063 -1 19 C-1.66 18.67 -2.32 18.34 -3 18 C-2.01 12.06 -1.02 6.12 0 0 Z " fill="#A8C5DF" transform="translate(143,187)"/>
<path d="M0 0 C-0.55466307 7.81476539 -1.91965892 15.40472672 -3.47412109 23.07739258 C-3.87473431 25.06118435 -4.26396465 27.04698441 -4.65234375 29.03320312 C-6.02650631 35.88675259 -7.59776812 42.43342005 -10 49 C-10.99 48.67 -11.98 48.34 -13 48 C-14.8296251 44.08973417 -16.09191296 39.9844682 -17.39355469 35.87353516 C-17.94282286 34.17664145 -18.5502397 32.4988427 -19.1640625 30.82421875 C-21.49422097 23.67271613 -20.74370927 19.44244721 -17.4921875 12.69140625 C-13.20112741 4.95177169 -9.80680627 -0.98068063 0 0 Z " fill="#8297B6" transform="translate(135,186)"/>
<path d="M0 0 C1.3610282 4.32396404 0.12984483 7.3776857 -1.375 11.5 C-3.42635281 17.17773646 -3.42635281 17.17773646 -5 23 C-5.66 23 -6.32 23 -7 23 C-7.2371875 23.52851562 -7.474375 24.05703125 -7.71875 24.6015625 C-9.38433996 27.71946566 -11.42669096 30.52157123 -13.5 33.375 C-14.39714794 34.62108474 -15.29428296 35.86717877 -16.19140625 37.11328125 C-17.12756965 38.40887911 -18.06376782 39.70445184 -19 41 C-20.81577596 43.5184933 -22.62743957 46.03989713 -24.4375 48.5625 C-24.85 49.13339355 -25.2625 49.70428711 -25.6875 50.29248047 C-27.45998511 52.76182131 -29.12628544 55.21845585 -30.6484375 57.8515625 C-32 60 -32 60 -34.1875 60.8125 C-34.785625 60.874375 -35.38375 60.93625 -36 61 C-37.74408983 57.80250198 -38.06780267 56.32849222 -37.3203125 52.70703125 C-35.92036883 48.77642017 -34.23556278 46.09151818 -31.75 42.75 C-31.31671387 42.16138184 -30.88342773 41.57276367 -30.43701172 40.96630859 C-29.48217376 39.67129085 -28.52281506 38.37959727 -27.55957031 37.09082031 C-25.91004506 34.87940293 -24.27782052 32.65598245 -22.6484375 30.4296875 C-15.17494536 20.22954987 -7.60697712 10.10083959 0 0 Z " fill="#AFD2E2" transform="translate(305,104)"/>
<path d="M0 0 C0 3.3 0 6.6 0 10 C-0.70382812 10.29390625 -1.40765625 10.5878125 -2.1328125 10.890625 C-17.58751735 17.9118225 -29.87253584 30.57779313 -40 44 C-40.33 44.99 -40.66 45.98 -41 47 C-41.99 46.67 -42.98 46.34 -44 46 C-43.54851905 43.748615 -43.08855496 41.49893002 -42.625 39.25 C-42.36976563 37.99703125 -42.11453125 36.7440625 -41.8515625 35.453125 C-41.1569875 32.63659152 -40.44319917 30.48481248 -39 28 C-38.34 28 -37.68 28 -37 28 C-36.60748047 27.12408203 -36.60748047 27.12408203 -36.20703125 26.23046875 C-31.52533617 17.57918107 -21.98022992 12.2811778 -14 7 C-13.09894531 6.38382813 -12.19789063 5.76765625 -11.26953125 5.1328125 C-3.74222488 0 -3.74222488 0 0 0 Z " fill="#95B4D4" transform="translate(297,156)"/>
<path d="M0 0 C0.66 0 1.32 0 2 0 C2.37511719 1.11117188 2.75023437 2.22234375 3.13671875 3.3671875 C5.69200314 10.82667168 8.18570955 18.04797015 12.1171875 24.921875 C13 27 13 27 13 32 C5.08 32 -2.84 32 -11 32 C-10.17413835 27.04483009 -8.98529363 22.87005306 -7.1875 18.25 C-6.78700439 17.20199219 -6.78700439 17.20199219 -6.37841797 16.1328125 C-4.30757398 10.73342612 -2.1876021 5.35319103 0 0 Z " fill="#757BA6" transform="translate(366,384)"/>
<path d="M0 0 C0.495 1.485 0.495 1.485 1 3 C0.67 3.33 0.34 3.66 0 4 C-0.10123677 6.53779568 -0.13968338 9.04770961 -0.1328125 11.5859375 C-0.13376923 12.35749176 -0.13472595 13.12904602 -0.13571167 13.92398071 C-0.13639424 15.56667156 -0.13453466 17.20936507 -0.13037109 18.85205078 C-0.12509619 21.32981714 -0.13027528 23.80739612 -0.13671875 26.28515625 C-0.13885147 33.96157562 -0.05384229 41.51776817 0.88330078 49.15087891 C0.92181152 49.76108887 0.96032227 50.37129883 1 51 C0.67 51.33 0.34 51.66 0 52 C0.00593323 53.6880039 0.05540252 55.37592105 0.125 57.0625 C0.13349902 63.64074106 -0.49895313 68.18944234 -4.95703125 73.19921875 C-9.40741052 77.42215104 -12.95608864 79.93342741 -19 81 C-19.70125 81.226875 -20.4025 81.45375 -21.125 81.6875 C-25.76164889 82.46027482 -30.5978182 80.29475935 -35 79 C-35 78.34 -35 77.68 -35 77 C-34.47921875 77.15726562 -33.9584375 77.31453125 -33.421875 77.4765625 C-26.59356206 78.95235917 -18.48629488 79.50902289 -12.375 75.75 C-10.55999131 74.408453 -10.55999131 74.408453 -9 73 C-8.21625 72.319375 -7.4325 71.63875 -6.625 70.9375 C-2.58254478 66.11764954 -2.51222051 61.77206705 -2.62890625 55.62890625 C-3.70208539 45.13434394 -8.75699399 36.11250212 -14.1328125 27.25390625 C-16.06129214 23.89318755 -17.54126621 20.58341127 -19 17 C-17.68 15.68 -16.36 14.36 -15 13 C-11.39124858 14.4450628 -9.92268261 16.17300076 -7.875 19.4375 C-7.37742187 20.21996094 -6.87984375 21.00242187 -6.3671875 21.80859375 C-5.69042969 22.89333984 -5.69042969 22.89333984 -5 24 C-4.34 24.99 -3.68 25.98 -3 27 C-2.67 18.42 -2.34 9.84 -2 1 C-1.34 0.67 -0.68 0.34 0 0 Z " fill="#95B8D7" transform="translate(282,249)"/>
<path d="M0 0 C5.99898968 5.69247196 10.64304177 12.32365235 15.50732422 18.98242188 C16.82128415 20.75843837 18.16735205 22.49981288 19.53515625 24.234375 C26.11347651 32.94528965 30.76575416 43.25951982 33 54 C32.505 54.99 32.505 54.99 32 56 C26.14978251 48.90783689 20.75533609 41.54406971 15.45068359 34.04345703 C12.69452911 30.161092 9.90974172 26.29938468 7.125 22.4375 C6.57755127 21.67566406 6.03010254 20.91382813 5.46606445 20.12890625 C3.24843635 17.05397765 1.04356344 14.05179367 -1.3984375 11.1484375 C-3 9 -3 9 -2.75 6.1875 C-2.5025 5.465625 -2.255 4.74375 -2 4 C-1.01 3.67 -0.02 3.34 1 3 C0.67 2.01 0.34 1.02 0 0 Z " fill="#E3EDF3" transform="translate(184,155)"/>
<path d="M0 0 C1.2065625 0.0309375 1.2065625 0.0309375 2.4375 0.0625 C4.73044005 4.30292925 6.12915807 8.22561988 7.19140625 12.921875 C7.48853516 14.20191406 7.78566406 15.48195312 8.09179688 16.80078125 C8.39537399 18.13782977 8.69809933 19.47507195 9 20.8125 C9.59722065 23.4552093 10.20395218 26.09508491 10.81640625 28.734375 C11.0801001 29.9006543 11.34379395 31.06693359 11.61547852 32.26855469 C12.22733003 35.17151218 12.22733003 35.17151218 14.4375 37.0625 C14.20098956 41.43794306 12.44758416 43.96641344 9.4375 47.0625 C7.30078125 47.703125 7.30078125 47.703125 5.4375 48.0625 C5.18842896 46.81545288 5.18842896 46.81545288 4.93432617 45.54321289 C4.3070392 42.41678677 3.67460114 39.29145665 3.03881836 36.16674805 C2.76628803 34.8221043 2.49572927 33.47705922 2.22729492 32.1315918 C0.84534845 25.21156561 -0.61456595 18.50219329 -2.98901367 11.85327148 C-3.72659479 9.55009672 -3.89858934 7.47300145 -3.8125 5.0625 C-3.79703125 4.32 -3.7815625 3.5775 -3.765625 2.8125 C-3.43356685 -0.0483087 -2.9057525 0.07087201 0 0 Z " fill="#BFDDEB" transform="translate(326.5625,196.9375)"/>
<path d="M0 0 C5.23179437 1.61495903 10.14191154 3.75639084 15.125 6 C15.92292969 6.35578125 16.72085938 6.7115625 17.54296875 7.078125 C21.0653983 8.6541035 24.55703061 10.25584515 28 12 C28.06058594 13.26714844 28.12117188 14.53429687 28.18359375 15.83984375 C28.26808565 17.53906964 28.35272919 19.238288 28.4375 20.9375 C28.47681641 21.76830078 28.51613281 22.59910156 28.55664062 23.45507812 C28.83730769 29.00365014 29.33760065 34.48371637 30 40 C25.49520936 35.79890311 21.97852678 31.10690319 18.375 26.125 C17.14062895 24.43228879 15.9062539 22.73958049 14.671875 21.046875 C14.05892578 20.20318359 13.44597656 19.35949219 12.81445312 18.49023438 C11.09980878 16.13698191 9.37337777 13.79306408 7.640625 11.453125 C7.12967285 10.76202637 6.6187207 10.07092773 6.09228516 9.35888672 C5.12974162 8.05745098 4.16591712 6.75696145 3.20068359 5.45751953 C0 1.11260674 0 1.11260674 0 0 Z " fill="#8194B6" transform="translate(180,148)"/>
<path d="M0 0 C3.24045767 0.5586996 5.00070493 1.34449458 7 4 C8.85825415 12.908689 4.80554672 22.47402607 0.3984375 30.01953125 C-2.09149635 33.54577836 -5.1212675 36.06063375 -9 38 C-10.54023996 38.06950541 -12.08334988 38.08452357 -13.625 38.0625 C-14.85089844 38.04896484 -14.85089844 38.04896484 -16.1015625 38.03515625 C-16.72804687 38.02355469 -17.35453125 38.01195312 -18 38 C-18.20086443 34.28400809 -18.1519437 33.22791555 -16 30 C-14.3603125 29.7525 -14.3603125 29.7525 -12.6875 29.5 C-8.54171153 27.81357757 -8.18122668 27.28521984 -6.3125 23.4375 C-3.27702476 15.89906812 -1.66422413 7.93063232 0 0 Z " fill="#ACC7DF" transform="translate(200,215)"/>
<path d="M0 0 C-0.33 3.3 -0.66 6.6 -1 10 C-1.33 9.34 -1.66 8.68 -2 8 C-7.21589548 12.38887061 -9.53167254 17.67820062 -12.3125 23.8125 C-12.76689453 24.79154297 -13.22128906 25.77058594 -13.68945312 26.77929688 C-14.80283563 29.18185913 -15.90593402 31.58859578 -17 34 C-19.62534569 30.06198147 -20.90258168 26.76653946 -21 22 C-17.98851888 11.48646637 -12.61172841 -1.26117284 0 0 Z " fill="#9EBDD9" transform="translate(135,186)"/>
<path d="M0 0 C5.30967255 0.65349816 8.92797761 1.30503032 12.6875 5.25 C17.47108331 11.45177506 22.41653174 19.30305657 21.703125 27.34765625 C20.97313429 30.01625437 20.14071564 32.48220422 19 35 C14.3785273 28.06779095 10.68795037 20.5394123 7.17578125 12.99609375 C6.01627 10.69639849 6.01627 10.69639849 3 9 C2.67 10.32 2.34 11.64 2 13 C1.34 8.71 0.68 4.42 0 0 Z " fill="#94B5D4" transform="translate(380,185)"/>
<path d="M0 0 C6.43160642 0.31379879 12.21039807 3.28224759 17.75 6.3125 C18.84248047 6.88000977 18.84248047 6.88000977 19.95703125 7.45898438 C24.36384367 9.82234748 27.65469878 12.27934018 31 16 C30.34 16 29.68 16 29 16 C28.34 17.32 27.68 18.64 27 20 C21.92547788 19.4171836 17.9635476 17.04156132 13.5625 14.625 C12.08495433 13.8249316 10.60709531 13.02544157 9.12890625 12.2265625 C8.42781738 11.84330811 7.72672852 11.46005371 7.00439453 11.06518555 C5.20774146 10.11039903 3.36936256 9.23512282 1.52734375 8.37109375 C-1 7 -1 7 -2 4.4375 C-2 2 -2 2 0 0 Z " fill="#E6F1F5" transform="translate(207,152)"/>
<path d="M0 0 C0.66 0 1.32 0 2 0 C2.31453125 0.59167969 2.6290625 1.18335937 2.953125 1.79296875 C3.38109375 2.58316406 3.8090625 3.37335938 4.25 4.1875 C4.66765625 4.96480469 5.0853125 5.74210937 5.515625 6.54296875 C6.93754746 9.09914445 6.93754746 9.09914445 9.15625 11.25 C11.75429958 15.12505699 11.44822341 18.26479753 11.25 22.8125 C11.23195312 23.60076172 11.21390625 24.38902344 11.1953125 25.20117188 C11.14844048 27.13464261 11.0767041 29.06748285 11 31 C5.375 31.25 5.375 31.25 2 29 C1.49169922 26.94042969 1.49169922 26.94042969 1.3046875 24.421875 C1.19060547 23.05095703 1.19060547 23.05095703 1.07421875 21.65234375 C1.00847656 20.69457031 0.94273437 19.73679688 0.875 18.75 C0.72837893 16.86964915 0.57998686 14.98943542 0.4296875 13.109375 C0.36233398 12.22314453 0.29498047 11.33691406 0.22558594 10.42382812 C0.03932343 8.42251413 -0.272614 6.43333219 -0.6171875 4.453125 C-1 2 -1 2 0 0 Z " fill="#C3DDE8" transform="translate(206,113)"/>
<path d="M0 0 C-2.92216859 5.47906611 -6.38445764 10.37687415 -10.09765625 15.3515625 C-12.0408548 17.96486748 -12.0408548 17.96486748 -13.609375 20.78515625 C-15 23 -15 23 -17.1875 23.8125 C-17.785625 23.874375 -18.38375 23.93625 -19 24 C-20.73353996 20.8218434 -21.07128751 19.34325142 -20.32421875 15.74609375 C-18.89612843 11.70615684 -17.12644911 8.6080612 -14.6875 5.125 C-14.30916016 4.54492188 -13.93082031 3.96484375 -13.54101562 3.3671875 C-11.70446141 0.70713605 -10.46268855 -0.83357024 -7.3828125 -1.94140625 C-4.49230219 -2.01248437 -2.58133877 -1.25379312 0 0 Z " fill="#9AC2DB" transform="translate(288,141)"/>
<path d="M0 0 C1.32 0.33 2.64 0.66 4 1 C4.67155349 3.26949102 5.3373963 5.5403961 6 7.8125 C6.37125 9.07707031 6.7425 10.34164062 7.125 11.64453125 C8 15 8 15 8 18 C-0.91 18 -9.82 18 -19 18 C-19 17.67 -19 17.34 -19 17 C-18.40832031 16.92523438 -17.81664063 16.85046875 -17.20703125 16.7734375 C-12.8854928 16.05435606 -10.52421334 15.48847152 -7.25 12.4375 C-4.46654157 8.52902004 -2.21812623 4.24747575 0 0 Z " fill="#9ABED9" transform="translate(102,207)"/>
<path d="M0 0 C4.26643944 1.5002864 5.48059796 4.12496085 7.5625 8 C10.01933772 12.67204909 10.01933772 12.67204909 14 16 C15.65549531 16.38499891 17.3222433 16.72793135 19 17 C19 17.33 19 17.66 19 18 C11.08 18 3.16 18 -5 18 C-3.14285714 5.14285714 -3.14285714 5.14285714 0 0 Z " fill="#94B6D4" transform="translate(411,207)"/>
<path d="M0 0 C0 0.33 0 0.66 0 1 C-3.96 1 -7.92 1 -12 1 C-12 24.76 -12 48.52 -12 73 C-7.71 73 -3.42 73 1 73 C1 73.66 1 74.32 1 75 C-2.57380342 76.19126781 -4.50883302 75.7349445 -8.1875 75.0625 C-9.27417969 74.86785156 -10.36085938 74.67320312 -11.48046875 74.47265625 C-12.72763672 74.23869141 -12.72763672 74.23869141 -14 74 C-14.02312484 64.49925675 -14.0409158 54.99852312 -14.05181217 45.49775791 C-14.05704069 41.08662996 -14.06413777 36.6755212 -14.07543945 32.2644043 C-14.08626944 28.01098885 -14.09227707 23.75759191 -14.09487724 19.50416374 C-14.09673129 17.87778367 -14.10035152 16.25140466 -14.10573006 14.62503242 C-14.11294198 12.35489807 -14.11399088 10.08484115 -14.11352539 7.81469727 C-14.115746 6.52008072 -14.11796661 5.22546417 -14.12025452 3.89161682 C-14 1 -14 1 -13 0 C-8.35417132 -0.9109468 -4.62492794 -1.01522809 0 0 Z " fill="#737597" transform="translate(426,369)"/>
<path d="M0 0 C1.79244141 0.01740234 1.79244141 0.01740234 3.62109375 0.03515625 C5.41740234 0.04869141 5.41740234 0.04869141 7.25 0.0625 C8.17683594 0.07410156 9.10367187 0.08570313 10.05859375 0.09765625 C10.05859375 0.42765625 10.05859375 0.75765625 10.05859375 1.09765625 C6.09859375 1.09765625 2.13859375 1.09765625 -1.94140625 1.09765625 C-1.94140625 25.18765625 -1.94140625 49.27765625 -1.94140625 74.09765625 C2.34859375 74.09765625 6.63859375 74.09765625 11.05859375 74.09765625 C10.56359375 75.08765625 10.56359375 75.08765625 10.05859375 76.09765625 C8.28851661 76.17879731 6.51737277 76.2369113 4.74609375 76.28515625 C3.75996094 76.31996094 2.77382813 76.35476563 1.7578125 76.390625 C-0.94140625 76.09765625 -0.94140625 76.09765625 -2.734375 75.0859375 C-6.79294519 68.40046104 -4.98911676 57.85105493 -4.85546875 50.3515625 C-4.83366591 48.93050153 -4.81221789 47.50943507 -4.79110718 46.08836365 C-4.7458589 43.12727865 -4.69665385 40.16629401 -4.64453125 37.20532227 C-4.57788296 33.40329811 -4.52077438 29.60120028 -4.46650124 25.79898167 C-4.42378153 22.87281583 -4.37633584 19.94674172 -4.32740402 17.02067375 C-4.30446908 15.61760628 -4.28296414 14.2145147 -4.26289749 12.81140327 C-4.2342439 10.86060229 -4.19860355 8.90990765 -4.16259766 6.95922852 C-4.14403717 5.84862564 -4.12547668 4.73802277 -4.10635376 3.59376526 C-3.86741126 -0.02209118 -3.67763186 0.12209933 0 0 Z " fill="#767C9C" transform="translate(272.94140625,367.90234375)"/>
<path d="M0 0 C0.33 0.99 0.66 1.98 1 3 C-0.75 5.375 -0.75 5.375 -3 8 C-3.45890625 8.77601563 -3.9178125 9.55203125 -4.390625 10.3515625 C-6.61829198 14.01748048 -9.33708681 17.19646886 -12.0625 20.5 C-13.93102611 22.91100143 -15.44361615 25.38166363 -17 28 C-17.84885801 29.04267242 -18.72113221 30.06713639 -19.625 31.0625 C-21.77528951 33.7220686 -22.5814557 34.75628168 -23 38 C-23.2784375 39.36125 -23.2784375 39.36125 -23.5625 40.75 C-23.7790625 41.86375 -23.7790625 41.86375 -24 43 C-23.4225 42.278125 -22.845 41.55625 -22.25 40.8125 C-20.16666667 38.20833333 -18.08333333 35.60416667 -16 33 C-15.34 33.33 -14.68 33.66 -14 34 C-16.07723412 36.92105438 -18.16284515 39.83602792 -20.25 42.75 C-20.83652344 43.575 -21.42304688 44.4 -22.02734375 45.25 C-22.60097656 46.04921875 -23.17460937 46.8484375 -23.765625 47.671875 C-24.28930664 48.4050293 -24.81298828 49.13818359 -25.35253906 49.89355469 C-27.08767627 52.11210298 -28.97186509 54.04898049 -31 56 C-30.41444549 52.25245111 -29.21054761 48.9809238 -27.8203125 45.46484375 C-26.43184559 41.29283126 -25.67554733 36.97262933 -24.84375 32.66015625 C-24.42609375 31.34337891 -24.42609375 31.34337891 -24 30 C-23.01 29.67 -22.02 29.34 -21 29 C-19.51908348 27.38401229 -19.51908348 27.38401229 -18.14453125 25.3515625 C-17.60787842 24.59794434 -17.07122559 23.84432617 -16.51831055 23.06787109 C-15.95539307 22.26172363 -15.39247559 21.45557617 -14.8125 20.625 C-13.64857353 18.98427849 -12.48451117 17.34365338 -11.3203125 15.703125 C-10.75473633 14.90068359 -10.18916016 14.09824219 -9.60644531 13.27148438 C-7.49449155 10.28522028 -5.34477019 7.32868177 -3.1875 4.375 C-2.24970703 3.08722656 -2.24970703 3.08722656 -1.29296875 1.7734375 C-0.86628906 1.18820313 -0.43960937 0.60296875 0 0 Z " fill="#ACCBDF" transform="translate(330,155)"/>
<path d="M0 0 C0.66 0.99 1.32 1.98 2 3 C2.99 2.01 3.98 1.02 5 0 C9.24673909 4.49156219 10.87528491 9.4495754 12.8125 15.1875 C13.29879883 16.55938477 13.29879883 16.55938477 13.79492188 17.95898438 C15.52691162 22.98435076 15.52691162 22.98435076 16 25 C15.67 25.66 15.34 26.32 15 27 C12.30143785 23.69139055 9.64587889 20.35085168 7 17 C6.22527344 16.04222656 5.45054687 15.08445313 4.65234375 14.09765625 C3.55599609 12.68806641 3.55599609 12.68806641 2.4375 11.25 C1.75558594 10.38890625 1.07367188 9.5278125 0.37109375 8.640625 C-1.35497757 5.31633949 -0.95012012 3.55126864 0 0 Z " fill="#D5E6F1" transform="translate(201,184)"/>
<path d="M0 0 C11.88 0 23.76 0 36 0 C37.65 4.62 39.3 9.24 41 14 C44.1865625 14.185625 44.1865625 14.185625 47.4375 14.375 C51.05859375 14.5859375 51.05859375 14.5859375 54 15 C54.495 15.99 54.495 15.99 55 17 C52.9211618 17.30341425 50.836427 17.5666325 48.75 17.8125 C47.58984375 17.96332031 46.4296875 18.11414063 45.234375 18.26953125 C42 18 42 18 39.6875 15.73828125 C37.16722981 11.64867615 35 7.92201537 35 3 C24.11 2.67 13.22 2.34 2 2 C2 2.66 2 3.32 2 4 C1.34 4 0.68 4 0 4 C0 2.68 0 1.36 0 0 Z " fill="#767899" transform="translate(349,427)"/>
<path d="M0 0 C0.33 0 0.66 0 1 0 C1.19401633 1.81181405 1.38004375 3.62448532 1.5625 5.4375 C1.71912109 6.95150391 1.71912109 6.95150391 1.87890625 8.49609375 C1.93884766 9.73552734 1.93884766 9.73552734 2 11 C1.67 11.33 1.34 11.66 1 12 C1.00593323 13.6880039 1.05540252 15.37592105 1.125 17.0625 C1.13349902 23.64074106 0.50104687 28.18944234 -3.95703125 33.19921875 C-8.40741052 37.42215104 -11.95608864 39.93342741 -18 41 C-19.051875 41.3403125 -19.051875 41.3403125 -20.125 41.6875 C-24.76164889 42.46027482 -29.5978182 40.29475935 -34 39 C-34 38.34 -34 37.68 -34 37 C-33.21882812 37.23589844 -33.21882812 37.23589844 -32.421875 37.4765625 C-25.59356206 38.95235917 -17.48629488 39.50902289 -11.375 35.75 C-9.55999131 34.408453 -9.55999131 34.408453 -8 33 C-7.21625 32.319375 -6.4325 31.63875 -5.625 30.9375 C-0.83249255 25.22335651 -1.57541816 19.14440588 -2 12 C-2.49862755 8.61707 -3.16203111 5.31446622 -4 2 C-2.68 2.66 -1.36 3.32 0 4 C0 2.68 0 1.36 0 0 Z " fill="#ADCCE5" transform="translate(281,289)"/>
<path d="M0 0 C1.32 0.99 2.64 1.98 4 3 C4.66 2.67 5.32 2.34 6 2 C7.12513633 10.01659634 7.09579384 17.92138585 7 26 C6.67 26 6.34 26 6 26 C6.020625 24.88625 6.04125 23.7725 6.0625 22.625 C5.43290172 17.10617761 1.87355629 14.02801823 -1.87109375 10.19921875 C-4 8 -4 8 -6 5 C-4.02 3.35 -2.04 1.7 0 0 Z " fill="#B7D1E7" transform="translate(238,167)"/>
<path d="M0 0 C5.75 0.75 5.75 0.75 8 3 C8.35064538 5.735034 8.46679754 7.32411606 6.875 9.62890625 C2.76497653 12.63436091 -3.18312088 11.64933419 -8 11 C-10.84220525 9.62965104 -11.93594515 8.47686582 -14 6 C-14 5.34 -14 4.68 -14 4 C-16.97 5.65 -19.94 7.3 -23 9 C-23 10.32 -23 11.64 -23 13 C-23.66 13 -24.32 13 -25 13 C-25.3125 10.1875 -25.3125 10.1875 -25 7 C-22.61107499 5.11400657 -21.08148442 4 -18 4 C-18 3.34 -18 2.68 -18 2 C-14.35218786 2.32186578 -13.08623253 2.91787379 -10.375 5.5 C-6.31122274 9.21087028 -1.25761015 8.89709304 4 9 C4 8.34 4 7.68 4 7 C4.66 7 5.32 7 6 7 C6 5.68 6 4.36 6 3 C3.03 2.505 3.03 2.505 0 2 C0 1.34 0 0.68 0 0 Z " fill="#7C83A0" transform="translate(240,422)"/>
<path d="M0 0 C0.66 0 1.32 0 2 0 C2 23.76 2 47.52 2 72 C1.67 72 1.34 72 1 72 C0.505 40.32 0.505 40.32 0 8 C-1.98 9.32 -3.96 10.64 -6 12 C-4.88194029 8.12979331 -3.9704892 5.71218579 -1 3 C-0.67 2.01 -0.34 1.02 0 0 Z " fill="#7E94B9" transform="translate(288,236)"/>
<path d="M0 0 C10.55808656 3.07517084 10.55808656 3.07517084 15 5 C13.68 5.33 12.36 5.66 11 6 C10.87625 6.804375 10.7525 7.60875 10.625 8.4375 C10.41875 9.283125 10.2125 10.12875 10 11 C8 12 8 12 5.65234375 11.36328125 C4.75644531 11.01652344 3.86054688 10.66976562 2.9375 10.3125 C2.03902344 9.97863281 1.14054688 9.64476562 0.21484375 9.30078125 C-2 8 -2 8 -2.80859375 5.85546875 C-2.87175781 5.24316406 -2.93492187 4.63085938 -3 4 C-2.01 3.67 -1.02 3.34 0 3 C0 2.01 0 1.02 0 0 Z " fill="#DBE8EF" transform="translate(196,147)"/>
<path d="M0 0 C0.66 0.99 1.32 1.98 2 3 C1.67 3.99 1.34 4.98 1 6 C1.66 6 2.32 6 3 6 C3 6.66 3 7.32 3 8 C2.34 8.391875 1.68 8.78375 1 9.1875 C-3.0902449 11.65868963 -6.46705341 14.80018485 -10 18 C-10.66 17.67 -11.32 17.34 -12 17 C-11.0925 16.29875 -10.185 15.5975 -9.25 14.875 C-4.34453279 10.76782816 -1.75152218 6.13032763 0 0 Z M-14 18 C-13.34 18.33 -12.68 18.66 -12 19 C-17.45811434 22.50694009 -23.0126361 25.72336221 -28.75 28.75 C-29.49121094 29.14832031 -30.23242188 29.54664063 -30.99609375 29.95703125 C-32.07310547 30.52744141 -32.07310547 30.52744141 -33.171875 31.109375 C-34.1323877 31.61936035 -34.1323877 31.61936035 -35.11230469 32.13964844 C-37.0556806 33.02537745 -38.91668254 33.54821014 -41 34 C-41 33.34 -41 32.68 -41 32 C-39.88882812 31.49210938 -38.77765625 30.98421875 -37.6328125 30.4609375 C-30.08687124 26.97852166 -22.7396155 23.52616118 -15.78515625 18.93359375 C-15.19605469 18.62550781 -14.60695313 18.31742188 -14 18 Z " fill="#AACDE2" transform="translate(354,117)"/>
<path d="M0 0 C2.79163712 2.40768703 3.89717557 4.76146616 5.1875 8.1875 C5.53167969 9.08855469 5.87585938 9.98960937 6.23046875 10.91796875 C6.48441406 11.60503906 6.73835938 12.29210937 7 13 C7.99 13 8.98 13 10 13 C9.7525 13.639375 9.505 14.27875 9.25 14.9375 C8.8702653 19.58925006 10.96741462 22.89497463 13 27 C13.78177829 28.61976286 14.55307929 30.24463525 15.3125 31.875 C15.65925781 32.59429687 16.00601562 33.31359375 16.36328125 34.0546875 C17 36 17 36 16 39 C15.72414063 38.443125 15.44828125 37.88625 15.1640625 37.3125 C14.38376423 35.76237727 13.58661738 34.22062894 12.7734375 32.6875 C9.33534302 26.08021228 6.4074731 19.34348668 3.625 12.4375 C3.26712402 11.55642578 2.90924805 10.67535156 2.54052734 9.76757812 C2.21004395 8.93548828 1.87956055 8.10339844 1.5390625 7.24609375 C1.24209473 6.50029053 0.94512695 5.7544873 0.63916016 4.98608398 C0 3 0 3 0 0 Z " fill="#727699" transform="translate(390,405)"/>
<path d="M0 0 C0.66 0 1.32 0 2 0 C0.63784946 3.62371148 -0.97476489 6.91384974 -2.9375 10.25 C-3.69353516 11.55710937 -3.69353516 11.55710937 -4.46484375 12.890625 C-6 15 -6 15 -9 16 C-10.03048037 14.3811004 -11.04914678 12.75467511 -12.0625 11.125 C-12.63097656 10.22007812 -13.19945313 9.31515625 -13.78515625 8.3828125 C-14.18605469 7.59648437 -14.58695312 6.81015625 -15 6 C-14.67 5.34 -14.34 4.68 -14 4 C-13.62875 4.515625 -13.2575 5.03125 -12.875 5.5625 C-10.9827574 7.36073264 -10.9827574 7.36073264 -7.9375 6.625 C-6.968125 6.41875 -5.99875 6.2125 -5 6 C-4.34 6.33 -3.68 6.66 -3 7 C-2.87625 6.401875 -2.7525 5.80375 -2.625 5.1875 C-2 3 -2 3 0 0 Z " fill="#747F9B" transform="translate(127,385)"/>
<path d="M0 0 C0 3.39172968 -0.81797938 5.67978458 -1.9375 8.875 C-3.23081684 12.57416428 -4.32299926 16.13753265 -5 20 C-5.66 19.67 -6.32 19.34 -7 19 C-7.6328125 16.93359375 -7.6328125 16.93359375 -8.125 14.4375 C-8.29257813 13.61121094 -8.46015625 12.78492188 -8.6328125 11.93359375 C-8.75398437 11.29550781 -8.87515625 10.65742188 -9 10 C-8.34 10 -7.68 10 -7 10 C-6.67 7.03 -6.34 4.06 -6 1 C-4.02 0.67 -2.04 0.34 0 0 Z " fill="#859AB9" transform="translate(234,217)"/>
<path d="M0 0 C3.83325416 1.45399296 5.28279605 3.3080115 7 7 C7.1875 9.8125 7.1875 9.8125 7 12 C6.01 12.495 6.01 12.495 5 13 C4.59270772 15.32156597 4.25561323 17.6568787 4 20 C-0.01984912 13.97022631 -0.25729264 7.07554765 0 0 Z " fill="#6E83AA" transform="translate(383,194)"/>
<path d="M0 0 C1.9375 0.375 1.9375 0.375 4 1 C5.4783226 3.95664519 5.06032783 6.74229737 5 10 C2.03 10 -0.94 10 -4 10 C-3.06588007 6.2635203 -1.77257035 3.39100415 0 0 Z " fill="#7E94B0" transform="translate(102,207)"/>
<path d="M0 0 C3.21365891 1.10815825 3.9914224 1.98529554 5.75 5 C7 8 7 8 7 10 C3.7 10 0.4 10 -3 10 C-2.25 3.375 -2.25 3.375 0 0 Z " fill="#7A8BAD" transform="translate(411,207)"/>
<path d="M0 0 C-0.33 0.66 -0.66 1.32 -1 2 C-3.328125 2.52734375 -3.328125 2.52734375 -6.25 2.9375 C-13.38796574 4.13638313 -17.12897268 6.62938014 -22 12 C-22.70125 13.093125 -23.4025 14.18625 -24.125 15.3125 C-25.053125 16.6428125 -25.053125 16.6428125 -26 18 C-26.99 18 -27.98 18 -29 18 C-26.57636945 10.96167896 -21.33043084 5.93897575 -14.75 2.5625 C-9.7478627 0.25779624 -5.51690404 -0.10609431 0 0 Z " fill="#B3D5E6" transform="translate(335,86)"/>
<path d="M0 0 C0.33 0 0.66 0 1 0 C1.33 6.6 1.66 13.2 2 20 C4.97 19.01 7.94 18.02 11 17 C13.99609375 16.63671875 13.99609375 16.63671875 16.4375 16.6875 C17.67306641 16.69330078 17.67306641 16.69330078 18.93359375 16.69921875 C21 17 21 17 23 19 C22.154375 19.02578125 21.30875 19.0515625 20.4375 19.078125 C13.18889965 19.44055502 8.25764412 20.33986853 2 24 C1.34 24 0.68 24 0 24 C0 16.08 0 8.16 0 0 Z " fill="#6B7397" transform="translate(284,370)"/>
<path d="M0 0 C4.13956154 0.60875905 7.29282504 2.10522169 11 4 C11.66 4 12.32 4 13 4 C13.66 2.68 14.32 1.36 15 0 C15.67934107 1.22220737 16.34291523 2.45318451 17 3.6875 C17.37125 4.37199219 17.7425 5.05648437 18.125 5.76171875 C19.1232653 8.31531704 19.15233386 10.28179271 19 13 C18.46632812 12.63648438 17.93265625 12.27296875 17.3828125 11.8984375 C12.31196525 8.47693157 7.16311523 5.26810792 1.87109375 2.19921875 C1.25363281 1.80347656 0.63617188 1.40773437 0 1 C0 0.67 0 0.34 0 0 Z " fill="#929FB5" transform="translate(224,158)"/>
<path d="M0 0 C1 3 1 3 -0.4375 6.0625 C-2.90121197 11.49179119 -2.8953145 16.9237912 -1.23828125 22.6171875 C0.71138794 27.68786863 3.1789455 32.36541046 6 37 C2.64933828 35.614012 1.16628149 34.2243823 -0.6875 31.125 C-1.10386719 30.44695312 -1.52023438 29.76890625 -1.94921875 29.0703125 C-5.35026189 22.36937248 -5.39891518 12.31892152 -3.10546875 5.23828125 C-2 3.0625 -2 3.0625 0 0 Z " fill="#7C85A1" transform="translate(150,400)"/>
<path d="M0 0 C3.03015519 4.54523279 1.39398564 8.89874323 0.4375 14 C0.293125 14.66 0.14875 15.32 0 16 C-0.99 15.67 -1.98 15.34 -3 15 C-4.6875 11.4375 -4.6875 11.4375 -6 8 C-5.195625 7.236875 -4.39125 6.47375 -3.5625 5.6875 C-0.83200976 3.20569102 -0.83200976 3.20569102 0 0 Z " fill="#90AECF" transform="translate(227,211)"/>
<path d="M0 0 C0.33 0 0.66 0 1 0 C1.19401633 1.81181405 1.38004375 3.62448532 1.5625 5.4375 C1.66691406 6.44683594 1.77132813 7.45617187 1.87890625 8.49609375 C1.93884766 9.73552734 1.93884766 9.73552734 2 11 C1.67 11.33 1.34 11.66 1 12 C0.92725996 14.75048278 1.00374236 17.48768901 1.0625 20.23828125 C1.00599288 22.73518939 0.93204427 24.68577643 0 27 C-0.99 27.33 -1.98 27.66 -3 28 C-2.67 27.01 -2.34 26.02 -2 25 C-1.52338649 17.09708297 -2.06058517 9.67107832 -4 2 C-2.02 2.99 -2.02 2.99 0 4 C0 2.68 0 1.36 0 0 Z " fill="#A2C4E0" transform="translate(281,289)"/>
<path d="M0 0 C-0.96679688 0.01417969 -1.93359375 0.02835937 -2.9296875 0.04296875 C-12.53067661 0.39468815 -20.15236631 1.51593884 -27.5 8.3125 C-28.2425 9.1478125 -28.2425 9.1478125 -29 10 C-29.66 10 -30.32 10 -31 10 C-30.8203125 8.1953125 -30.8203125 8.1953125 -30 6 C-22.1496231 0.32273781 -9.03673183 -6.02448789 0 0 Z " fill="#7B86A1" transform="translate(183,389)"/>
<path d="M0 0 C2 1 2 1 2.64453125 2.7421875 C3.04963538 5.31526646 2.94656294 7.5343706 2.6875 10.125 C2.56955078 11.42824219 2.56955078 11.42824219 2.44921875 12.7578125 C2 15 2 15 0 17 C-2.8203125 17.1953125 -2.8203125 17.1953125 -6.125 17.125 C-7.22070312 17.10695313 -8.31640625 17.08890625 -9.4453125 17.0703125 C-10.28835937 17.04710937 -11.13140625 17.02390625 -12 17 C-12.33 16.34 -12.66 15.68 -13 15 C-8.71 15 -4.42 15 0 15 C0 10.05 0 5.1 0 0 Z " fill="#6F799B" transform="translate(126,427)"/>
<path d="M0 0 C0.33 0.66 0.66 1.32 1 2 C1.99 2.33 2.98 2.66 4 3 C3.34 4.98 2.68 6.96 2 9 C-3.28 9 -8.56 9 -14 9 C-14 8.67 -14 8.34 -14 8 C-13.40832031 7.92523438 -12.81664063 7.85046875 -12.20703125 7.7734375 C-7.78988902 7.03844809 -4.84623795 6.43946501 -1.9375 2.875 C-1.298125 1.92625 -0.65875 0.9775 0 0 Z " fill="#A4C2DC" transform="translate(97,216)"/>
<path d="M0 0 C0.33 0 0.66 0 1 0 C2.41914253 14.55579973 2.41914253 14.55579973 0.9375 20.3125 C0.628125 21.529375 0.31875 22.74625 0 24 C0.66 24.66 1.32 25.32 2 26 C0.35 26.99 -1.3 27.98 -3 29 C-4.14767015 25.55698954 -3.84515889 25.06439134 -2.625 21.8125 C-0.31163804 14.70340137 -0.26669911 7.41239586 0 0 Z " fill="#8B9BB5" transform="translate(254,178)"/>
<path d="M0 0 C2.01635978 3.02453967 3.03246502 5.63075348 4.1875 9.0625 C4.55230469 10.12597656 4.91710937 11.18945312 5.29296875 12.28515625 C6 15 6 15 5 17 C-2.50378119 8.55824616 -2.50378119 8.55824616 -2.4375 3.9375 C-2.293125 2.968125 -2.14875 1.99875 -2 1 C-1.34 0.67 -0.68 0.34 0 0 Z " fill="#C3DCEE" transform="translate(211,194)"/>
<path d="M0 0 C0.66 0.33 1.32 0.66 2 1 C2 1.99 2 2.98 2 4 C-5.92 4 -13.84 4 -22 4 C-22 3.34 -22 2.68 -22 2 C-14.74 2 -7.48 2 0 2 C0 1.34 0 0.68 0 0 Z " fill="#7E8199" transform="translate(377,412)"/>
<path d="M0 0 C1.13583456 3.71727674 0.66670026 5.47051709 -1 9 C-1.66 9 -2.32 9 -3 9 C-3.2475 9.639375 -3.495 10.27875 -3.75 10.9375 C-5 13 -5 13 -7.125 13.75 C-8.053125 13.87375 -8.053125 13.87375 -9 14 C-7.65070536 10.16336928 -5.92248975 7.34827431 -3.375 4.1875 C-2.42753906 3.00220703 -2.42753906 3.00220703 -1.4609375 1.79296875 C-0.97882813 1.20128906 -0.49671875 0.60960938 0 0 Z M-10 14 C-10 14.99 -10 15.98 -10 17 C-10.99 17.66 -11.98 18.32 -13 19 C-11.125 15.125 -11.125 15.125 -10 14 Z " fill="#A4C7DC" transform="translate(305,104)"/>
<path d="M0 0 C1.57688338 4.73065014 -0.84686158 8.19303381 -2.75 12.625 C-3.1109375 13.50929688 -3.471875 14.39359375 -3.84375 15.3046875 C-4.19953125 16.14515625 -4.5553125 16.985625 -4.921875 17.8515625 C-5.24768555 18.62322754 -5.57349609 19.39489258 -5.90917969 20.18994141 C-7 22 -7 22 -10 23 C-8.62498864 18.62376191 -6.94514645 14.52788768 -5 10.375 C-4.484375 9.26898438 -3.96875 8.16296875 -3.4375 7.0234375 C-2.31741702 4.6676108 -1.1800836 2.32612633 0 0 Z " fill="#6F759B" transform="translate(342,408)"/>
<path d="M0 0 C0.66 0 1.32 0 2 0 C3.85437404 3.70874808 3.46438653 7.95320308 3 12 C1.92473903 14.66232739 0.65396201 16.62242962 -1 19 C-1.99 18.67 -2.98 18.34 -4 18 C-3.34 16.88625 -2.68 15.7725 -2 14.625 C0.48147344 9.74942895 0.39556963 5.36216614 0 0 Z " fill="#868CA7" transform="translate(191,409)"/>
<path d="M0 0 C0.66 0 1.32 0 2 0 C2.66 3.3 3.32 6.6 4 10 C4.66 10 5.32 10 6 10 C6.33 7.36 6.66 4.72 7 2 C7.33 2 7.66 2 8 2 C8.17835515 6.54805635 7.99785435 9.8794254 6 14 C3 13 3 13 1.875 10.9375 C0.78485116 7.27771461 0.38633537 3.7989645 0 0 Z " fill="#788BA7" transform="translate(119,221)"/>
<path d="M0 0 C0.33 0 0.66 0 1 0 C1.86096102 10.7524465 1.86096102 10.7524465 -1.3125 14.5625 C-6.20512821 19 -6.20512821 19 -10 19 C-10 18.34 -10 17.68 -10 17 C-8.6078125 16.1028125 -8.6078125 16.1028125 -7.1875 15.1875 C-3.37207628 12.56907196 -1.4772134 10.51238822 -0.6015625 5.90234375 C-0.3456283 3.94133442 -0.166998 1.97057646 0 0 Z " fill="#72789C" transform="translate(261,423)"/>
<path d="M0 0 C0 4.29 0 8.58 0 13 C-0.66 13 -1.32 13 -2 13 C-2 9.04 -2 5.08 -2 1 C-6.29 1 -10.58 1 -15 1 C-15 0.67 -15 0.34 -15 0 C-13.06325815 -0.19517554 -11.12555991 -0.38087873 -9.1875 -0.5625 C-8.10855469 -0.66691406 -7.02960938 -0.77132813 -5.91796875 -0.87890625 C-3 -1 -3 -1 0 0 Z " fill="#7C7FA3" transform="translate(429,370)"/>
<path d="M0 0 C0 0.66 0 1.32 0 2 C-1.8253125 2.0928125 -1.8253125 2.0928125 -3.6875 2.1875 C-8.15849852 2.71163126 -10.13301658 4.50586395 -13 8 C-13 4 -13 4 -11.125 1.8125 C-7.18379357 -1.54911724 -5.01086989 -0.83514498 0 0 Z " fill="#8B9DB3" transform="translate(107,197)"/>
<path d="M0 0 C0.99 0.33 1.98 0.66 3 1 C2.73445312 1.61746094 2.46890625 2.23492187 2.1953125 2.87109375 C-0.17189366 8.54720486 -1.8314502 13.9624927 -3 20 C-4.61822003 17.50817568 -5.05455605 16.36607111 -4.609375 13.37890625 C-4.18398437 11.98478516 -4.18398437 11.98478516 -3.75 10.5625 C-3.47671875 9.63566406 -3.2034375 8.70882812 -2.921875 7.75390625 C-2.04125671 5.12324568 -1.06048179 2.562831 0 0 Z " fill="#919FB4" transform="translate(139,166)"/>
<path d="M0 0 C0.99 0.66 1.98 1.32 3 2 C1.79618552 4.49361571 0.54571278 6.68143083 -1 9 C-4.875 7.25 -4.875 7.25 -6 5 C-4.02 3.35 -2.04 1.7 0 0 Z " fill="#CFE3EF" transform="translate(238,167)"/>
<path d="M0 0 C0.66 0 1.32 0 2 0 C2 2.97 2 5.94 2 9 C1.01 8.67 0.02 8.34 -1 8 C-3.69433317 9.87197454 -3.69433317 9.87197454 -6 12 C-4.88194029 8.12979331 -3.9704892 5.71218579 -1 3 C-0.67 2.01 -0.34 1.02 0 0 Z " fill="#87A1C6" transform="translate(288,236)"/>
<path d="M0 0 C0.33 0 0.66 0 1 0 C2.12513633 8.01659634 2.09579384 15.92138585 2 24 C1.67 24 1.34 24 1 24 C0.855625 22.783125 0.71125 21.56625 0.5625 20.3125 C0.27296139 17.95896476 -0.06514348 15.69599711 -0.5625 13.375 C-1.08402776 10.54384931 -1.06247268 7.87374338 -1 5 C-1 4.01 -1 3.02 -1 2 C-0.67 1.34 -0.34 0.68 0 0 Z " fill="#B4C8DB" transform="translate(243,169)"/>
<path d="M0 0 C2.64 0.33 5.28 0.66 8 1 C10.68902652 7.02341941 11.27170568 10.525862 10 17 C9.67 17 9.34 17 9 17 C8.98582031 16.33613281 8.97164063 15.67226563 8.95703125 14.98828125 C8.64570256 9.03771761 8.64570256 9.03771761 5.625 4 C3.79491873 2.60565237 1.91433107 1.27622072 0 0 Z " fill="#888FAA" transform="translate(251,414)"/>
<path d="M0 0 C1.0828125 0.9590625 1.0828125 0.9590625 2.1875 1.9375 C4.98191184 3.98673535 6.61663274 4.61332946 10 5 C10 5.33 10 5.66 10 6 C5.05 6 0.1 6 -5 6 C-4.01 4.68 -3.02 3.36 -2 2 C-1.34 2 -0.68 2 0 2 C0 1.34 0 0.68 0 0 Z " fill="#A3C0DB" transform="translate(420,219)"/>
<path d="M0 0 C0.33 0.99 0.66 1.98 1 3 C0.67 3.33 0.34 3.66 0 4 C-0.15806531 5.92478813 -0.251135 7.8549921 -0.31640625 9.78515625 C-0.35830078 10.95498047 -0.40019531 12.12480469 -0.44335938 13.33007812 C-0.50233398 15.17762695 -0.50233398 15.17762695 -0.5625 17.0625 C-0.60568359 18.29806641 -0.64886719 19.53363281 -0.69335938 20.80664062 C-0.79984198 23.87097335 -0.90185424 26.93539073 -1 30 C-1.66 29.67 -2.32 29.34 -3 29 C-2.67 19.76 -2.34 10.52 -2 1 C-1.34 0.67 -0.68 0.34 0 0 Z " fill="#8EACCA" transform="translate(282,249)"/>
<path d="M0 0 C1.95918968 0.05991406 3.91751529 0.14867138 5.875 0.25 C6.96554688 0.29640625 8.05609375 0.3428125 9.1796875 0.390625 C12 1 12 1 13.3828125 3.046875 C13.58648437 3.69140625 13.79015625 4.3359375 14 5 C11 5 11 5 8 3 C3.33489303 2.49292316 0.81293434 3.30851694 -3 6 C-2.67 4.68 -2.34 3.36 -2 2 C-1.34 2 -0.68 2 0 2 C0 1.34 0 0.68 0 0 Z " fill="#919FB5" transform="translate(145,160)"/>
<path d="M0 0 C1.65 0.33 3.3 0.66 5 1 C5 1.99 5 2.98 5 4 C4.67 3.34 4.34 2.68 4 2 C1.03 3.65 -1.94 5.3 -5 7 C-5 8.32 -5 9.64 -5 11 C-5.66 11 -6.32 11 -7 11 C-7.3125 8.1875 -7.3125 8.1875 -7 5 C-4.61107499 3.11400657 -3.08148442 2 0 2 C0 1.34 0 0.68 0 0 Z " fill="#717CA0" transform="translate(222,424)"/>
<path d="M0 0 C0.66 0 1.32 0 2 0 C1.67 2.64 1.34 5.28 1 8 C0.38125 8.103125 -0.2375 8.20625 -0.875 8.3125 C-3.36526484 8.87525373 -3.36526484 8.87525373 -5 12 C-5.99 11.67 -6.98 11.34 -8 11 C-6.71632558 9.16106176 -5.42283239 7.32897375 -4.125 5.5 C-3.04605469 3.96859375 -3.04605469 3.96859375 -1.9453125 2.40625 C-1.30335938 1.6121875 -0.66140625 0.818125 0 0 Z " fill="#889DB6" transform="translate(298,127)"/>
<path d="M0 0 C0.66 0.33 1.32 0.66 2 1 C0.90437286 2.9631237 -0.20180549 4.92036163 -1.3125 6.875 C-2.23482422 8.51082031 -2.23482422 8.51082031 -3.17578125 10.1796875 C-5 13 -5 13 -8 15 C-7.4520917 10.7170548 -5.97567196 8.14864359 -3.4375 4.6875 C-2.79683594 3.80449219 -2.15617188 2.92148437 -1.49609375 2.01171875 C-0.75552734 1.01591797 -0.75552734 1.01591797 0 0 Z " fill="#7C87A2" transform="translate(149,377)"/>
<path d="M0 0 C0.66 0.33 1.32 0.66 2 1 C1.2884375 1.928125 1.2884375 1.928125 0.5625 2.875 C-1.02417441 4.90705546 -1.02417441 4.90705546 -2 7 C-2.99 7.33 -3.98 7.66 -5 8 C-6.66710346 9.49985609 -6.66710346 9.49985609 -8 11 C-8 6.67750434 -5.85084926 5.11604454 -3 2 C-2.01 1.34 -1.02 0.68 0 0 Z " fill="#8892AC" transform="translate(169,400)"/>
<path d="M0 0 C-1.07401108 2.91517292 -1.77810176 4.77810176 -4 7 C-7 3.375 -7 3.375 -7 0 C-2.25 -1.125 -2.25 -1.125 0 0 Z " fill="#6F7DAB" transform="translate(123,392)"/>
<path d="M0 0 C3.53945561 2.35963707 3.80933528 3.5633654 5.125 7.5 C6.39159705 11.32158291 6.39159705 11.32158291 8 15 C7.01 15 6.02 15 5 15 C4.16013916 13.06532058 3.32831973 11.12714871 2.5 9.1875 C2.0359375 8.10855469 1.571875 7.02960938 1.09375 5.91796875 C0 3 0 3 0 0 Z " fill="#6F749A" transform="translate(377,374)"/>
<path d="M0 0 C3.76382187 1.25460729 4.25041838 2.52618612 6.25 5.875 C6.79140625 6.75929688 7.3328125 7.64359375 7.890625 8.5546875 C9 11 9 11 8 14 C5.20416203 12.60208101 4.91441103 10.56368664 3.796875 7.78125 C2.82289701 5.60412273 1.45893992 3.87577989 0 2 C0 1.34 0 0.68 0 0 Z " fill="#7A86A5" transform="translate(100,396)"/>
<path d="M0 0 C0.12375 0.598125 0.2475 1.19625 0.375 1.8125 C0.95475985 4.26231348 0.95475985 4.26231348 3 7 C3.66 7.33 4.32 7.66 5 8 C3.35 9.65 1.7 11.3 0 13 C-1.32630565 8.85529486 -1.98384711 3.96769422 0 0 Z " fill="#86A2CA" transform="translate(267,157)"/>
<path d="M0 0 C4.20626034 1.50223584 5.73900021 4.28550034 8 8 C7.01 8.495 7.01 8.495 6 9 C6 8.34 6 7.68 6 7 C5.01 7 4.02 7 3 7 C3 6.34 3 5.68 3 5 C1.68 5.33 0.36 5.66 -1 6 C-0.67 4.02 -0.34 2.04 0 0 Z " fill="#A9D1E1" transform="translate(352,92)"/>
<path d="M0 0 C2.04990741 3.31670413 2.12519669 5.21894304 1.3125 9 C1.14363281 9.845625 0.97476563 10.69125 0.80078125 11.5625 C-0.0630823 14.19201638 -1.22928643 15.89270451 -3 18 C-2.19500136 11.96251023 -1.11517502 5.98729887 0 0 Z " fill="#94A5BD" transform="translate(188,220)"/>
<path d="M0 0 C0.66 0 1.32 0 2 0 C1.07133622 2.32165945 0.4195928 3.72027146 -1.6875 5.125 C-4.65067484 6.24620129 -7.09069297 6.19368059 -10.25 6.125 C-11.32765625 6.10695312 -12.4053125 6.08890625 -13.515625 6.0703125 C-14.33546875 6.04710937 -15.1553125 6.02390625 -16 6 C-16 5.67 -16 5.34 -16 5 C-12.7 5 -9.4 5 -6 5 C-6 4.34 -6 3.68 -6 3 C-4.02 2.67 -2.04 2.34 0 2 C0 1.34 0 0.68 0 0 Z " fill="#8C9DB1" transform="translate(89,211)"/>
<path d="M0 0 C4.95 1.98 4.95 1.98 10 4 C9.01 5.485 9.01 5.485 8 7 C8 6.34 8 5.68 8 5 C5.36 5 2.72 5 0 5 C0 3.35 0 1.7 0 0 Z " fill="#A2BDD0" transform="translate(208,160)"/>
<path d="M0 0 C0.90492188 0.02320313 1.80984375 0.04640625 2.7421875 0.0703125 C4.10730469 0.09738281 4.10730469 0.09738281 5.5 0.125 C6.19867188 0.14820313 6.89734375 0.17140625 7.6171875 0.1953125 C7.6171875 0.5253125 7.6171875 0.8553125 7.6171875 1.1953125 C6.225 1.3809375 6.225 1.3809375 4.8046875 1.5703125 C1.47793515 2.01064332 1.47793515 2.01064332 -1.3828125 4.1953125 C-2.3728125 5.6803125 -2.3728125 5.6803125 -3.3828125 7.1953125 C-4.0428125 7.1953125 -4.7028125 7.1953125 -5.3828125 7.1953125 C-4.30239292 0.35265516 -4.30239292 0.35265516 0 0 Z " fill="#9197AC" transform="translate(235.3828125,398.8046875)"/>
<path d="M0 0 C2.64 0.33 5.28 0.66 8 1 C8 1.66 8 2.32 8 3 C8.99 3 9.98 3 11 3 C11.33 4.65 11.66 6.3 12 8 C8 5.33333333 4 2.66666667 0 0 Z " fill="#838BA7" transform="translate(246,389)"/>
<path d="M0 0 C0.33 0 0.66 0 1 0 C2 4 3 8 4 12 C2.02 12.99 2.02 12.99 0 14 C0 9.38 0 4.76 0 0 Z " fill="#9DBAD2" transform="translate(143,187)"/>
<path d="M0 0 C2.475 0.495 2.475 0.495 5 1 C4.51917969 1.34675781 4.03835937 1.69351563 3.54296875 2.05078125 C1.24641888 4.95199235 1.47973801 7.54171147 1.3125 11.1875 C1.24675781 12.45980469 1.18101562 13.73210937 1.11328125 15.04296875 C1.07589844 16.01878906 1.03851563 16.99460938 1 18 C0.67 18 0.34 18 0 18 C0 12.06 0 6.12 0 0 Z " fill="#8BA0BA" transform="translate(217,165)"/>
<path d="M0 0 C3.93774177 -0.36630156 5.56539771 -0.30233203 8.875 2 C9.926875 2.99 9.926875 2.99 11 4 C10.67 4.99 10.34 5.98 10 7 C9.67 6.01 9.34 5.02 9 4 C7.88625 3.896875 6.7725 3.79375 5.625 3.6875 C3.830625 3.3471875 3.830625 3.3471875 2 3 C1.34 2.01 0.68 1.02 0 0 Z " fill="#E4EDF1" transform="translate(147,162)"/>
<path d="M0 0 C1.21386936 3.64160808 0.6674695 4.33165469 -0.9375 7.6875 C-1.31777344 8.49574219 -1.69804687 9.30398438 -2.08984375 10.13671875 C-2.39019531 10.75160156 -2.69054687 11.36648438 -3 12 C-3.66 12 -4.32 12 -5 12 C-4.54965877 10.37276701 -4.08944646 8.74826336 -3.625 7.125 C-3.36976563 6.22007812 -3.11453125 5.31515625 -2.8515625 4.3828125 C-2 2 -2 2 0 0 Z " fill="#6F7499" transform="translate(350,389)"/>
<path d="M0 0 C0.66 0 1.32 0 2 0 C2.33 2.64 2.66 5.28 3 8 C1.68 8.33 0.36 8.66 -1 9 C-0.67 6.03 -0.34 3.06 0 0 Z " fill="#849BB2" transform="translate(140,206)"/>
<path d="M0 0 C0.99 0.33 1.98 0.66 3 1 C3.33 3.31 3.66 5.62 4 8 C1.96166576 6.7260411 -0.03852126 5.38938077 -2 4 C-2 3.34 -2 2.68 -2 2 C-1.34 2 -0.68 2 0 2 C0 1.34 0 0.68 0 0 Z " fill="#8A98AF" transform="translate(239,163)"/>
<path d="M0 0 C2.00993705 3.01490557 2.72623341 5.2149927 3.625 8.6875 C3.88539062 9.68136719 4.14578125 10.67523438 4.4140625 11.69921875 C4.60742188 12.45847656 4.80078125 13.21773437 5 14 C4.01 14 3.02 14 2 14 C1.86722656 13.37351563 1.73445313 12.74703125 1.59765625 12.1015625 C1.42105469 11.28429687 1.24445313 10.46703125 1.0625 9.625 C0.88847656 8.81289062 0.71445313 8.00078125 0.53515625 7.1640625 C0.07669307 4.970537 0.07669307 4.970537 -1 3 C-0.67 2.01 -0.34 1.02 0 0 Z " fill="#8EA0B6" transform="translate(110,225)"/>
<path d="M0 0 C0.33 0.66 0.66 1.32 1 2 C-0.375 4.5 -0.375 4.5 -3 7 C-6.37080851 7.44908891 -9.61884349 7.29036649 -13 7 C-13 6.67 -13 6.34 -13 6 C-12.39671875 5.90203125 -11.7934375 5.8040625 -11.171875 5.703125 C-6.29421718 4.79053096 -3.16176612 4.12404277 0 0 Z " fill="#B5CCDE" transform="translate(96,218)"/>
<path d="M0 0 C-1.47692308 4.67692308 -1.47692308 4.67692308 -4.125 6.3125 C-5.053125 6.6528125 -5.053125 6.6528125 -6 7 C-6.33 6.01 -6.66 5.02 -7 4 C-3.375 0 -3.375 0 0 0 Z " fill="#9ABCD8" transform="translate(228,215)"/>
<path d="M0 0 C0 6 0 6 -1.3125 7.38671875 C-2.875 8.59114583 -4.4375 9.79557292 -6 11 C-6 7.39426104 -5.18292538 6.58663434 -3 3.8125 C-2.443125 3.09707031 -1.88625 2.38164062 -1.3125 1.64453125 C-0.879375 1.10183594 -0.44625 0.55914062 0 0 Z " fill="#7F95B2" transform="translate(314,191)"/>
<path d="M0 0 C0.33 0.99 0.66 1.98 1 3 C-0.75 5.375 -0.75 5.375 -3 8 C-4.0268343 9.6502694 -5.03567924 11.31243867 -6 13 C-6.33 12.01 -6.66 11.02 -7 10 C-5.56640625 7.51953125 -5.56640625 7.51953125 -3.5625 4.8125 C-2.90378906 3.91144531 -2.24507813 3.01039063 -1.56640625 2.08203125 C-1.04949219 1.39496094 -0.53257812 0.70789063 0 0 Z " fill="#AFCEE3" transform="translate(330,155)"/>
<path d="M0 0 C3.91211733 1.15585285 6.8745041 2.35534962 10 5 C8.68 5 7.36 5 6 5 C5.67 5.99 5.34 6.98 5 8 C2.525 4.04 2.525 4.04 0 0 Z " fill="#96A2B1" transform="translate(180,148)"/>
<path d="M0 0 C0.66 0 1.32 0 2 0 C2.66 2.31 3.32 4.62 4 7 C2.02 7 0.04 7 -2 7 C-1.34 4.69 -0.68 2.38 0 0 Z " fill="#8688A2" transform="translate(366,384)"/>
<path d="M0 0 C1.55219315 5.23865187 1.27607352 9.02108916 -1 14 C-1.33 14 -1.66 14 -2 14 C-2.3690205 4.58997722 -2.3690205 4.58997722 0 0 Z " fill="#7888A3" transform="translate(239,232)"/>
<path d="M0 0 C1.32 0.33 2.64 0.66 4 1 C4.33 2.32 4.66 3.64 5 5 C4.38125 4.79375 3.7625 4.5875 3.125 4.375 C2.42375 4.25125 1.7225 4.1275 1 4 C0.34 4.66 -0.32 5.32 -1 6 C-1 2 -1 2 0 0 Z " fill="#93A3B9" transform="translate(102,207)"/>
<path d="M0 0 C0 0.66 0 1.32 0 2 C-1.6796875 3.5078125 -1.6796875 3.5078125 -3.875 5.125 C-4.95394531 5.93324219 -4.95394531 5.93324219 -6.0546875 6.7578125 C-8 8 -8 8 -10 8 C-8.48502075 3.75805811 -4.70198172 0 0 0 Z " fill="#A1C2DB" transform="translate(287,169)"/>
<path d="M0 0 C3.28788824 3.11016455 5.83735988 6.01618925 8 10 C7.01 10 6.02 10 5 10 C3.61328125 8.57421875 3.61328125 8.57421875 2.3125 6.6875 C1.87550781 6.07261719 1.43851563 5.45773438 0.98828125 4.82421875 C0 3 0 3 0 0 Z " fill="#7F92AA" transform="translate(157,131)"/>
<path d="M0 0 C0.99 0.33 1.98 0.66 3 1 C2.34 3.31 1.68 5.62 1 8 C0.01 8 -0.98 8 -2 8 C-1.34 5.36 -0.68 2.72 0 0 Z " fill="#7E84A4" transform="translate(344,400)"/>
<path d="M0 0 C0.66 0 1.32 0 2 0 C0.375 5.75 0.375 5.75 -3 8 C-2.25 2.25 -2.25 2.25 0 0 Z " fill="#7581A2" transform="translate(138,394)"/>
<path d="M0 0 C0.33 1.32 0.66 2.64 1 4 C-1.97 6.475 -1.97 6.475 -5 9 C-4.42647107 5.12867972 -2.51295648 2.91827204 0 0 Z " fill="#6F8BAD" transform="translate(321,182)"/>
<path d="M0 0 C0.66 0 1.32 0 2 0 C0.88059018 4.85077588 -0.1334716 7.777893 -4 11 C-3.39301257 6.87248551 -1.96189209 3.6678852 0 0 Z " fill="#B0D3E6" transform="translate(361,120)"/>
<path d="M0 0 C4.95 0 9.9 0 15 0 C15 0.33 15 0.66 15 1 C13.84371094 1.07347656 13.84371094 1.07347656 12.6640625 1.1484375 C11.66117188 1.22320312 10.65828125 1.29796875 9.625 1.375 C8.62726563 1.44460938 7.62953125 1.51421875 6.6015625 1.5859375 C3.84491121 1.76363964 3.84491121 1.76363964 2 4 C1.34 2.68 0.68 1.36 0 0 Z " fill="#DFE8F3" transform="translate(85,371)"/>
<path d="M0 0 C2 2 2 2 2.125 5.125 C2.08375 6.07375 2.0425 7.0225 2 8 C0.68 8.33 -0.64 8.66 -2 9 C-1.34 6.03 -0.68 3.06 0 0 Z " fill="#6B80A5" transform="translate(375,209)"/>
<path d="M0 0 C2.50037734 2.17424117 3.43628586 3.73045798 4 7 C2.02 7 0.04 7 -2 7 C-1.67 6.34 -1.34 5.68 -1 5 C-0.34 5 0.32 5 1 5 C0.67 3.35 0.34 1.7 0 0 Z " fill="#7285A6" transform="translate(414,210)"/>
<path d="M0 0 C0.66 0 1.32 0 2 0 C1.67 2.97 1.34 5.94 1 9 C0.34 9 -0.32 9 -1 9 C-0.67 6.03 -0.34 3.06 0 0 Z " fill="#C7DAEA" transform="translate(352,181)"/>
<path d="M0 0 C0.66 0.66 1.32 1.32 2 2 C0.35 4.31 -1.3 6.62 -3 9 C-3.66 8.34 -4.32 7.68 -5 7 C-3.625 4.5 -3.625 4.5 -2 2 C-1.34 2 -0.68 2 0 2 C0 1.34 0 0.68 0 0 Z " fill="#8199B8" transform="translate(286,126)"/>
<path d="M0 0 C4.3177458 0.50797009 8.03302114 1.19682779 12 3 C9.35258834 3.98052284 8.17553789 4.05565835 5.4375 3.1875 C3 2 3 2 0 0 Z " fill="#ABD1E3" transform="translate(337,86)"/>
<path d="M0 0 C3.43595166 1.52708963 6.11912454 3.59927045 9 6 C5.21213403 5.4739075 2.82847776 4.61896089 0 2 C0 1.34 0 0.68 0 0 Z " fill="#848BA6" transform="translate(227,427)"/>
<path d="M0 0 C0.33 0 0.66 0 1 0 C1.50559908 1.43554025 2.0042749 2.8735202 2.5 4.3125 C2.7784375 5.11300781 3.056875 5.91351563 3.34375 6.73828125 C4 9 4 9 4 12 C2 10.5 2 10.5 0 8 C-0.35800135 5.24128373 -0.18660165 2.79902476 0 0 Z " fill="#8C93AB" transform="translate(217,403)"/>
<path d="M0 0 C0.33 0.66 0.66 1.32 1 2 C-0.4375 4.625 -0.4375 4.625 -2 7 C-2.99 6.34 -3.98 5.68 -5 5 C-3.35 3.35 -1.7 1.7 0 0 Z " fill="#8891AC" transform="translate(154,371)"/>
<path d="M0 0 C0.66 0.99 1.32 1.98 2 3 C0.68 4.32 -0.64 5.64 -2 7 C-2.99 6.67 -3.98 6.34 -5 6 C-3.35 4.02 -1.7 2.04 0 0 Z " fill="#8593AD" transform="translate(260,258)"/>
<path d="M0 0 C0.66 0.33 1.32 0.66 2 1 C1.0479279 2.00596297 0.08812654 3.00461563 -0.875 4 C-1.40867187 4.556875 -1.94234375 5.11375 -2.4921875 5.6875 C-4 7 -4 7 -6 7 C-6 6.01 -6 5.02 -6 4 C-3 1.8125 -3 1.8125 0 0 Z " fill="#A3BFD9" transform="translate(274,178)"/>
<path d="M0 0 C2.6855594 2.6855594 3.06049974 5.37621328 4 9 C3.01 9.495 3.01 9.495 2 10 C1.01 7.03 0.02 4.06 -1 1 C-0.67 0.67 -0.34 0.34 0 0 Z " fill="#7D7FA0" transform="translate(403,434)"/>
<path d="M0 0 C0.66 1.32 1.32 2.64 2 4 C0.625 7.25 0.625 7.25 -1 10 C-1.66 10 -2.32 10 -3 10 C-2.01 6.7 -1.02 3.4 0 0 Z " fill="#8689A2" transform="translate(358,404)"/>
<path d="M0 0 C0.66 1.32 1.32 2.64 2 4 C1.01 5.485 1.01 5.485 0 7 C-1.32 6.67 -2.64 6.34 -4 6 C-2.68 4.02 -1.36 2.04 0 0 Z " fill="#8C97AF" transform="translate(131,404)"/>
<path d="M0 0 C1.625 1.6875 1.625 1.6875 3 4 C2.1875 6.75 2.1875 6.75 1 9 C0.34 8.67 -0.32 8.34 -1 8 C-0.67 5.36 -0.34 2.72 0 0 Z " fill="#8A9CB3" transform="translate(138,215)"/>
<path d="M0 0 C0.99 0.33 1.98 0.66 3 1 C2.01 1.66 1.02 2.32 0 3 C0 2.01 0 1.02 0 0 Z M-2 3 C-0.68 3.66 0.64 4.32 2 5 C0.02 5.99 0.02 5.99 -2 7 C-2.33 6.01 -2.66 5.02 -3 4 C-2.67 3.67 -2.34 3.34 -2 3 Z " fill="#E8F0F4" transform="translate(196,147)"/>
<path d="M0 0 C2.16419412 4.32838824 2.20068706 5.49742351 1 10 C0.01 10.495 0.01 10.495 -1 11 C-0.67 7.37 -0.34 3.74 0 0 Z " fill="#899CB6" transform="translate(309,121)"/>
<path d="M0 0 C0.33 0 0.66 0 1 0 C0.125 6.75 0.125 6.75 -1 9 C-1.66 9 -2.32 9 -3 9 C-2.01 6.03 -1.02 3.06 0 0 Z " fill="#797DA0" transform="translate(331,432)"/>
<path d="M0 0 C3.24208567 0.35049575 4.61527704 0.56221181 6.8125 3.0625 C7.204375 3.701875 7.59625 4.34125 8 5 C5 5 5 5 2.3125 2.5 C1.549375 1.675 0.78625 0.85 0 0 Z " fill="#888EA6" transform="translate(311,391)"/>
<path d="M0 0 C0.66 1.32 1.32 2.64 2 4 C1.01 4.99 0.02 5.98 -1 7 C-1.99 6.67 -2.98 6.34 -4 6 C-2.68 4.02 -1.36 2.04 0 0 Z " fill="#C7D7E6" transform="translate(394,232)"/>
<path d="M0 0 C0.66 0 1.32 0 2 0 C1.67 2.64 1.34 5.28 1 8 C0.34 8 -0.32 8 -1 8 C-0.67 5.36 -0.34 2.72 0 0 Z " fill="#D0DFE9" transform="translate(178,228)"/>
<path d="M0 0 C0.33 0 0.66 0 1 0 C1.36923077 5.53846154 1.36923077 5.53846154 -0.5 7.875 C-1.2425 8.431875 -1.2425 8.431875 -2 9 C-1.125 1.125 -1.125 1.125 0 0 Z " fill="#7382A6" transform="translate(396,221)"/>
<path d="M0 0 C0.99 0.33 1.98 0.66 3 1 C0.69 2.65 -1.62 4.3 -4 6 C-3 2 -3 2 0 0 Z " fill="#DDECF4" transform="translate(281,224)"/>
<path d="M0 0 C0 3.51716303 -0.82445585 4.37121748 -3 7 C-3.99 6.67 -4.98 6.34 -6 6 C-3.375 1.125 -3.375 1.125 0 0 Z " fill="#C2DAEC" transform="translate(240,169)"/>
<path d="M0 0 C4.455 0.99 4.455 0.99 9 2 C7 4 7 4 4.375 4.125 C3.59125 4.08375 2.8075 4.0425 2 4 C1.34 2.68 0.68 1.36 0 0 Z " fill="#8BA6C9" transform="translate(208,142)"/>
<path d="M0 0 C0.66 0.33 1.32 0.66 2 1 C1.67 2.32 1.34 3.64 1 5 C-0.32 5.33 -1.64 5.66 -3 6 C-1.125 1.125 -1.125 1.125 0 0 Z " fill="#A3CBE0" transform="translate(282,135)"/>
</svg>
