<?xml version="1.0" encoding="UTF-8"?>
<svg version="1.1" xmlns="http://www.w3.org/2000/svg" width="256" height="256">
<path d="M0 0 C84.48 0 168.96 0 256 0 C256 84.48 256 168.96 256 256 C171.52 256 87.04 256 0 256 C0 171.52 0 87.04 0 0 Z " fill="#1E1C1E" transform="translate(0,0)"/>
<path d="M0 0 C0.66 0 1.32 0 2 0 C0.46098769 6.3484258 -5.14441816 9.95669497 -10.2109375 13.58203125 C-19.95121608 20.60528475 -25.77287904 30.52452335 -31.92871094 40.5925293 C-37.41214359 49.44758812 -43.73500389 57.69001156 -50 66 C-52.04486259 68.71975099 -54.08888474 71.44012909 -56.13208008 74.16113281 C-57.4277593 75.88489569 -58.7256544 77.606996 -60.02612305 79.32714844 C-66.58144871 87.09291711 -66.58144871 87.09291711 -69.75 96.375 C-69.8325 97.57125 -69.915 98.7675 -70 100 C-69.34 100 -68.68 100 -68 100 C-67.77054688 99.48824219 -67.54109375 98.97648437 -67.3046875 98.44921875 C-65.5000736 95.06151541 -63.31268906 91.95925972 -61.125 88.8125 C-60.6388623 88.1097998 -60.15272461 87.40709961 -59.65185547 86.68310547 C-54.66909125 79.49498606 -49.6397679 72.34030309 -44.56787109 65.21484375 C-42.94530075 62.92272943 -41.34136635 60.6182747 -39.73828125 58.3125 C-30.71275211 45.42747506 -20.61200148 31.20400049 -5 26 C-2.93854893 25.931009 -0.87498599 25.91532273 1.1875 25.9375 C2.81751953 25.95103516 2.81751953 25.95103516 4.48046875 25.96484375 C5.31191406 25.97644531 6.14335937 25.98804687 7 26 C5.68 29.3 4.36 32.6 3 36 C2.154375 36.02578125 1.30875 36.0515625 0.4375 36.078125 C-6.61065817 36.43053291 -12.07880239 37.05253493 -18 41 C-18.9075 41.598125 -19.815 42.19625 -20.75 42.8125 C-24.59330558 46.54904709 -26.70983028 50.04135438 -27.5 55.375 C-26.50173305 62.61243535 -22.9678695 68.11166049 -19.0625 74.1875 C-14.85927462 80.8452208 -12.35620472 87.49654978 -10 95 C-9.67 95.99 -9.34 96.98 -9 98 C-8.3486422 107.44468812 -10.86734536 114.60354141 -16.90625 121.921875 C-23.55072956 128.51676889 -32.02832983 132.27855326 -41.375 132.3125 C-46.95569852 132.2294919 -51.01351069 131.49324465 -56 129 C-56.33 128.34 -56.66 127.68 -57 127 C-55.515 126.13375 -55.515 126.13375 -54 125.25 C-53.01 124.5075 -52.02 123.765 -51 123 C-51 118.63804718 -51.13367603 118.40278247 -53.9375 115.5 C-56.29719639 113.04546948 -57.41433017 111.38057522 -58 108 C-56.02 107.01 -56.02 107.01 -54 106 C-53.62875 107.051875 -53.2575 108.10375 -52.875 109.1875 C-51.12504413 113.13694169 -49.0149428 116.18236996 -45 118 C-40.16231581 118.74589844 -35.7579345 118.61145548 -31.125 117 C-26.84571155 112.9724344 -24.31873449 109.58562186 -23.58203125 103.609375 C-23.43324737 96.94952514 -23.74207716 91.81771936 -27 86 C-27.73664365 84.56631719 -28.46562723 83.1286766 -29.1875 81.6875 C-29.53167969 81.03136719 -29.87585938 80.37523437 -30.23046875 79.69921875 C-31 78 -31 78 -31 76 C-28.36 76.33 -25.72 76.66 -23 77 C-24.97654619 73.47045322 -26.94914106 70.0155281 -29.25 66.6875 C-31 64 -31 64 -31 62 C-31.66 62 -32.32 62 -33 62 C-33.26039063 62.68707031 -33.52078125 63.37414062 -33.7890625 64.08203125 C-39.14941607 76.9987542 -47.07432889 88.55668723 -55 100 C-55.5273877 100.76231934 -56.05477539 101.52463867 -56.59814453 102.31005859 C-78.24411963 133.49538773 -78.24411963 133.49538773 -91 139 C-91.66 139 -92.32 139 -93 139 C-93 138.34 -93 137.68 -93 137 C-91.42578125 135.51953125 -91.42578125 135.51953125 -89.3125 133.8125 C-82.34936173 127.85815562 -77.62326767 121.15666843 -76.6796875 111.8359375 C-76.14038671 95.62096054 -82.42961327 80.67197609 -93.3125 68.75 C-96.32782529 65.43284072 -96.32782529 65.43284072 -100 63 C-99.67 62.01 -99.34 61.02 -99 60 C-93.14844965 60.87178854 -89.69312069 65.73918677 -86 70 C-81.03030687 76.86244735 -75.87340727 84.64313425 -74 93 C-74.45393157 86.8888616 -75.78715175 82.66798677 -78.8125 77.375 C-79.32780273 76.43140625 -79.32780273 76.43140625 -79.85351562 75.46875 C-81.50181156 72.48759188 -83.22907123 69.6624433 -85.14453125 66.83984375 C-86.82030055 64.27503474 -87.87422249 62.06116113 -88.875 59.1875 C-93.72581881 46.74328406 -102.27851638 39.11555667 -114 33 C-113.01 32.505 -113.01 32.505 -112 32 C-93.93749728 40.16056361 -83.47062897 58.06892016 -73 74 C-68.57210357 69.84710435 -68.57210357 69.84710435 -65 65 C-65.41028167 61.36824742 -67.0419461 59.54674373 -69.5 56.9375 C-72.52894604 53.64003037 -75.43526418 50.29496513 -78.25 46.8125 C-82.3569344 41.74847132 -86.57624773 36.79147236 -90.83886719 31.85864258 C-99 22.39865212 -99 22.39865212 -99 20 C-80.56119124 18.21261547 -80.56119124 18.21261547 -75.24609375 21.921875 C-73.24519053 24.84328013 -71.66683624 27.8760148 -70 31 C-67.97502622 33.74990473 -65.80379661 36.37118937 -63.625 39 C-62.59393398 40.26887055 -61.56513755 41.5395901 -60.5390625 42.8125 C-60.09771973 43.35519531 -59.65637695 43.89789063 -59.20166016 44.45703125 C-58.06334441 45.91866383 -57.02763845 47.45854233 -56 49 C-55.34 49 -54.68 49 -54 49 C-52.4922621 47.35643114 -52.4922621 47.35643114 -50.9375 45.1875 C-46.76244125 39.67261909 -42.43625002 34.30698606 -38 29 C-37.28972656 28.14019531 -36.57945312 27.28039062 -35.84765625 26.39453125 C-26.4917667 15.48214651 -14.9079847 8.05783937 -2 2 C-1.34 2 -0.68 2 0 2 C0 1.34 0 0.68 0 0 Z " fill="#A1F6F8" transform="translate(192,54)"/>
<path d="M0 0 C0.66 0 1.32 0 2 0 C0.46098769 6.3484258 -5.14441816 9.95669497 -10.2109375 13.58203125 C-19.95121608 20.60528475 -25.77287904 30.52452335 -31.92871094 40.5925293 C-36.85618699 48.54978766 -42.46375103 55.9873899 -48.08984375 63.45898438 C-50.11117343 66.14789022 -52.11901262 68.84650737 -54.125 71.546875 C-55.47882567 73.36483732 -56.83298383 75.18255209 -58.1875 77 C-58.82324951 77.8549707 -59.45899902 78.70994141 -60.11401367 79.59082031 C-60.70931885 80.38584961 -61.30462402 81.18087891 -61.91796875 82 C-62.44156982 82.70125 -62.9651709 83.4025 -63.50463867 84.125 C-64.90638618 85.88261974 -66.3765397 87.44778399 -68 89 C-68 88.34 -68 87.68 -68 87 C-68.99 86.505 -68.99 86.505 -70 86 C-69.2265625 85.04480469 -68.453125 84.08960938 -67.65625 83.10546875 C-62.32945412 76.50274737 -57.08580712 69.88132519 -52.15234375 62.9765625 C-48.81971641 58.36773848 -45.38114719 53.83863108 -41.94726562 49.30493164 C-41.45033203 48.64614014 -40.95339844 47.98734863 -40.44140625 47.30859375 C-39.77153687 46.42385376 -39.77153687 46.42385376 -39.08813477 45.52124023 C-36.7808873 42.29564926 -36.91500694 39.90968077 -37 36 C-42.53046415 41.85578557 -47.44663988 48.07817506 -52.20166016 54.56591797 C-54.90139518 58.24227938 -57.65628269 61.82658586 -60.58984375 65.3203125 C-67.81800972 74.04801195 -72.09316837 80.24215119 -72 92 C-73.27120954 89.47061896 -74.52388546 86.93265307 -75.76953125 84.390625 C-78.90726092 78.01836009 -82.00168883 71.77942386 -85.92578125 65.84765625 C-87.19896384 63.6577822 -88.05036455 61.43422947 -88.9375 59.0625 C-93.73803908 46.67217581 -102.35192648 39.07725575 -114 33 C-113.01 32.505 -113.01 32.505 -112 32 C-93.93749728 40.16056361 -83.47062897 58.06892016 -73 74 C-68.57210357 69.84710435 -68.57210357 69.84710435 -65 65 C-65.41028167 61.36824742 -67.0419461 59.54674373 -69.5 56.9375 C-72.52894604 53.64003037 -75.43526418 50.29496513 -78.25 46.8125 C-82.3569344 41.74847132 -86.57624773 36.79147236 -90.83886719 31.85864258 C-99 22.39865212 -99 22.39865212 -99 20 C-80.56119124 18.21261547 -80.56119124 18.21261547 -75.24609375 21.921875 C-73.24519053 24.84328013 -71.66683624 27.8760148 -70 31 C-67.97502622 33.74990473 -65.80379661 36.37118937 -63.625 39 C-62.59393398 40.26887055 -61.56513755 41.5395901 -60.5390625 42.8125 C-60.09771973 43.35519531 -59.65637695 43.89789063 -59.20166016 44.45703125 C-58.06334441 45.91866383 -57.02763845 47.45854233 -56 49 C-55.34 49 -54.68 49 -54 49 C-52.4922621 47.35643114 -52.4922621 47.35643114 -50.9375 45.1875 C-46.76244125 39.67261909 -42.43625002 34.30698606 -38 29 C-37.28972656 28.14019531 -36.57945312 27.28039062 -35.84765625 26.39453125 C-26.4917667 15.48214651 -14.9079847 8.05783937 -2 2 C-1.34 2 -0.68 2 0 2 C0 1.34 0 0.68 0 0 Z " fill="#9DF3F5" transform="translate(192,54)"/>
<path d="M0 0 C0.66 0 1.32 0 2 0 C3.65625 2.23046875 3.65625 2.23046875 5.5 5.1875 C6.1084375 6.15042969 6.716875 7.11335938 7.34375 8.10546875 C8.82620404 10.69626696 9.97690007 13.20182169 11 16 C8.69 16 6.38 16 4 16 C4 15.34 4 14.68 4 14 C3.34 14 2.68 14 2 14 C2.49371094 14.89203125 2.98742187 15.7840625 3.49609375 16.703125 C4.14346768 17.88528608 4.79058989 19.06758504 5.4375 20.25 C5.76298828 20.83652344 6.08847656 21.42304688 6.42382812 22.02734375 C10.50719298 29.52052875 10.86265205 36.51567485 10 45 C8.2774876 49.40936573 5.51905848 52.86089128 2 56 C-2.69608408 57.56536136 -7.11124422 57.81146695 -12 57 C-15.32702644 55.17567172 -17.73187322 53.03831956 -20 50 C-21 46.5625 -21 46.5625 -21 44 C-21.99 44.66 -22.98 45.32 -24 46 C-22.64994369 51.67023649 -20.1842771 54.17957309 -16 58 C-17.50223584 62.20626034 -20.28550034 63.73900021 -24 66 C-25.27903511 65.11591635 -26.54788887 64.21709571 -27.8125 63.3125 C-28.52019531 62.81363281 -29.22789062 62.31476563 -29.95703125 61.80078125 C-32.26314456 59.7680504 -33.54650116 57.6914947 -35 55 C-34.67837891 54.54786133 -34.35675781 54.09572266 -34.02539062 53.62988281 C-17.09106129 30.19721454 -17.09106129 30.19721454 -3.0078125 5.0234375 C-2 3 -2 3 0 0 Z " fill="#1E1D20" transform="translate(159,116)"/>
<path d="M0 0 C0.33 0 0.66 0 1 0 C1.15082031 0.91265625 1.15082031 0.91265625 1.3046875 1.84375 C2.7104589 8.39117843 5.2279202 13.29965796 8.875 18.8125 C13.59183759 25.95221271 16.53684051 32.80856263 19 41 C19.33 41.99 19.66 42.98 20 44 C20.6513578 53.44468812 18.13265464 60.60354141 12.09375 67.921875 C5.44927044 74.51676889 -3.02832983 78.27855326 -12.375 78.3125 C-17.95569852 78.2294919 -22.01351069 77.49324465 -27 75 C-27.33 74.34 -27.66 73.68 -28 73 C-27.01 72.4225 -26.02 71.845 -25 71.25 C-24.01 70.5075 -23.02 69.765 -22 69 C-22 64.63804718 -22.13367603 64.40278247 -24.9375 61.5 C-27.29719639 59.04546948 -28.41433017 57.38057522 -29 54 C-27.68 53.34 -26.36 52.68 -25 52 C-24.62875 53.051875 -24.2575 54.10375 -23.875 55.1875 C-22.12504413 59.13694169 -20.0149428 62.18236996 -16 64 C-11.16231581 64.74589844 -6.7579345 64.61145548 -2.125 63 C2.15428845 58.9724344 4.68126551 55.58562186 5.41796875 49.609375 C5.56675263 42.94952514 5.25792284 37.81771936 2 32 C1.26335635 30.56631719 0.53437277 29.1286766 -0.1875 27.6875 C-0.53167969 27.03136719 -0.87585938 26.37523437 -1.23046875 25.69921875 C-2 24 -2 24 -2 22 C0.64 22.33 3.28 22.66 6 23 C5.443125 22.030625 4.88625 21.06125 4.3125 20.0625 C3.95671875 19.42441406 3.6009375 18.78632812 3.234375 18.12890625 C2.37646424 16.64928168 1.4655103 15.199672 0.515625 13.77734375 C-3.16629687 8.00701995 -3.16629687 8.00701995 -2.6484375 4.87109375 C-1.8125 2.9375 -1.8125 2.9375 0 0 Z " fill="#0AB3CB" transform="translate(163,108)"/>
<path d="M0 0 C1.63001953 0.01353516 1.63001953 0.01353516 3.29296875 0.02734375 C4.12441406 0.03894531 4.95585937 0.05054687 5.8125 0.0625 C4.4925 3.3625 3.1725 6.6625 1.8125 10.0625 C0.966875 10.08828125 0.12125 10.1140625 -0.75 10.140625 C-7.79815817 10.49303291 -13.26630239 11.11503493 -19.1875 15.0625 C-20.095 15.660625 -21.0025 16.25875 -21.9375 16.875 C-25.91780619 20.74474213 -27.93050826 25.41021083 -30.0625 30.4375 C-31.82530479 34.52087203 -34.08119155 37.96359666 -36.61328125 41.60546875 C-38.38973168 44.378142 -39.8146613 47.22457718 -41.25 50.1875 C-43.55856913 54.88880485 -45.7026765 59.13090426 -49.1875 63.0625 C-51.83984375 63.234375 -51.83984375 63.234375 -54.1875 63.0625 C-55.31714963 58.13838624 -55.49328896 53.55046323 -53.08886719 48.96923828 C-50.00585792 44.1908944 -46.47884085 39.74835303 -42.94042969 35.30224609 C-40.81434481 32.58571368 -38.83088212 29.78504654 -36.84692383 26.96411133 C-28.09825484 14.61258282 -16.37428889 -0.17606762 0 0 Z " fill="#9EF5F6" transform="translate(193.1875,79.9375)"/>
<path d="M0 0 C18.43880876 -1.78738453 18.43880876 -1.78738453 23.75390625 1.921875 C25.75469347 4.84311076 27.33310716 7.8763568 29 11 C31.00481425 13.70788186 33.15594757 16.28720088 35.3125 18.875 C38.51714104 22.77879913 41.53242573 26.57015677 44 31 C42.02 33.64 40.04 36.28 38 39 C33.29274918 35.46956188 29.87948833 31.51427044 26.2734375 26.87890625 C23.28297423 23.09201376 20.1528653 19.43358275 17.00830078 15.77441406 C14.2386668 12.53205721 11.67784734 9.21554972 9.1875 5.75 C6.89050623 2.71508311 6.34732879 2.10735617 2.5625 0.9375 C1.716875 0.958125 0.87125 0.97875 0 1 C0 0.67 0 0.34 0 0 Z " fill="#07B4CA" transform="translate(93,74)"/>
<path d="M0 0 C0.33 0 0.66 0 1 0 C1.10054687 0.6084375 1.20109375 1.216875 1.3046875 1.84375 C2.7104589 8.39117843 5.2279202 13.29965796 8.875 18.8125 C13.59183759 25.95221271 16.53684051 32.80856263 19 41 C19.33 41.99 19.66 42.98 20 44 C20.12781786 46.67394964 20.04391871 49.32095857 20 52 C19.34 50.68 18.68 49.36 18 48 C17.34 48.99 16.68 49.98 16 51 C14.01751285 51.71706982 12.01584651 52.38290413 10 53 C9.01 53.66 8.02 54.32 7 55 C5 53 5 53 4.91015625 49.98828125 C4.96042969 48.77527344 5.01070312 47.56226563 5.0625 46.3125 C5.13983473 40.47670246 4.82747874 37.04906917 2 32 C1.26335635 30.56631719 0.53437277 29.1286766 -0.1875 27.6875 C-0.53167969 27.03136719 -0.87585938 26.37523437 -1.23046875 25.69921875 C-2 24 -2 24 -2 22 C0.64 22.33 3.28 22.66 6 23 C5.443125 22.030625 4.88625 21.06125 4.3125 20.0625 C3.95671875 19.42441406 3.6009375 18.78632812 3.234375 18.12890625 C2.37646424 16.64928168 1.4655103 15.199672 0.515625 13.77734375 C-3.16629687 8.00701995 -3.16629687 8.00701995 -2.6484375 4.87109375 C-1.8125 2.9375 -1.8125 2.9375 0 0 Z " fill="#0389A6" transform="translate(163,108)"/>
<path d="M0 0 C0.66 0 1.32 0 2 0 C0.46098769 6.3484258 -5.14441816 9.95669497 -10.2109375 13.58203125 C-19.40177898 20.20911169 -25.3938749 29.3465042 -30.7109375 39.234375 C-31.34902344 40.10835937 -31.34902344 40.10835937 -32 41 C-32.99 41 -33.98 41 -35 41 C-35 38.36 -35 35.72 -35 33 C-35.66 32.67 -36.32 32.34 -37 32 C-36.525625 31.2575 -36.05125 30.515 -35.5625 29.75 C-33.93211995 27.23865901 -33.93211995 27.23865901 -33.6640625 25.09375 C-30.77453276 15.9832327 -16.85082942 10.21903031 -9 6 C-7.73199027 5.25835836 -6.46504833 4.51488785 -5.19921875 3.76953125 C-2 2 -2 2 0 2 C0 1.34 0 0.68 0 0 Z " fill="#A3F6F8" transform="translate(192,54)"/>
<path d="M0 0 C0.33 0 0.66 0 1 0 C1.52418231 5.91577176 0.18768199 9.08294052 -3.375 13.625 C-3.82762207 14.22908691 -4.28024414 14.83317383 -4.74658203 15.45556641 C-6.1478747 17.31699951 -7.57137175 19.15949703 -9 21 C-9.82374161 22.07749483 -10.6466944 23.1555933 -11.46875 24.234375 C-13.08378054 26.34230447 -14.70527028 28.44340283 -16.3359375 30.5390625 C-18.33179771 33.11470872 -20.28603868 35.71835333 -22.2265625 38.3359375 C-23.04278076 39.43542725 -23.04278076 39.43542725 -23.87548828 40.55712891 C-24.94223605 41.99709411 -26.0058196 43.43940987 -27.06591797 44.88427734 C-30.77949376 49.88974688 -30.77949376 49.88974688 -33 51 C-34.68162687 44.38510493 -34.68162687 44.38510493 -32.97949219 40.92626953 C-31.37001863 38.71073354 -29.66361181 36.6361927 -27.875 34.5625 C-26.57828057 32.98401407 -25.282736 31.40456238 -23.98828125 29.82421875 C-22.99175537 28.62804932 -22.99175537 28.62804932 -21.97509766 27.40771484 C-18.89139618 23.6485722 -15.98231424 19.76186713 -13.0625 15.875 C-8.94465553 10.39568419 -4.75559361 4.94831037 0 0 Z " fill="#212428" transform="translate(155,89)"/>
<path d="M0 0 C3 0 3 0 6 1 C5.51140503 1.66866089 5.51140503 1.66866089 5.01293945 2.35083008 C-1.34542637 11.06710376 -7.61972679 19.828409 -13.6875 28.75 C-21.6832976 40.48600051 -21.6832976 40.48600051 -25.6875 46.1875 C-26.30274536 47.07937012 -26.30274536 47.07937012 -26.93041992 47.98925781 C-27.9029518 49.36346508 -28.94491952 50.68810479 -30 52 C-30.66 52 -31.32 52 -32 52 C-32.43140245 45.7648865 -31.93062093 42.91325644 -28 37.8125 C-27.56719727 37.23862549 -27.13439453 36.66475098 -26.68847656 36.07348633 C-25.14379942 34.0345019 -23.57140128 32.0184533 -22 30 C-19.95148055 27.32377474 -17.90891232 24.64308181 -15.8671875 21.96166992 C-14.48697336 20.15316286 -13.10178534 18.34843766 -11.7109375 16.5480957 C-7.98337848 11.70586025 -4.51010576 6.8342384 -1.33300781 1.6105957 C-0.67316895 0.81335083 -0.67316895 0.81335083 0 0 Z " fill="#202226" transform="translate(154,102)"/>
<path d="M0 0 C0.66 0.99 1.32 1.98 2 3 C1.01 4.32 0.02 5.64 -1 7 C-0.505 7.495 -0.505 7.495 0 8 C0.14115161 10.67058851 0.04247107 13.32432238 0 16 C0.66 16.33 1.32 16.66 2 17 C-2.55874981 24.78072336 -7.8544075 31.78451285 -13.43066406 38.85058594 C-19.87853336 47.04854216 -25.95943314 55.49947378 -32 64 C-32.33 63.34 -32.66 62.68 -33 62 C-33.66 61.67 -34.32 61.34 -35 61 C-34.2265625 60.04480469 -33.453125 59.08960938 -32.65625 58.10546875 C-27.32945412 51.50274737 -22.08580712 44.88132519 -17.15234375 37.9765625 C-13.81971641 33.36773848 -10.38114719 28.83863108 -6.94726562 24.30493164 C-6.45033203 23.64614014 -5.95339844 22.98734863 -5.44140625 22.30859375 C-4.99482666 21.71876709 -4.54824707 21.12894043 -4.08813477 20.52124023 C-1.7808873 17.29564926 -1.91500694 14.90968077 -2 11 C-2.66 11.33 -3.32 11.66 -4 12 C-4.66 10.35 -5.32 8.7 -6 7 C-4.02 4.69 -2.04 2.38 0 0 Z " fill="#9FE2E6" transform="translate(157,79)"/>
<path d="M0 0 C1.63001953 0.01353516 1.63001953 0.01353516 3.29296875 0.02734375 C4.12441406 0.03894531 4.95585937 0.05054687 5.8125 0.0625 C4.4925 3.3625 3.1725 6.6625 1.8125 10.0625 C0.94367188 10.11148438 0.07484375 10.16046875 -0.8203125 10.2109375 C-1.97273438 10.28570312 -3.12515625 10.36046875 -4.3125 10.4375 C-6.01792969 10.54191406 -6.01792969 10.54191406 -7.7578125 10.6484375 C-11.14457003 11.05731711 -13.96866181 11.97749836 -17.1875 13.0625 C-20.5625 12.6875 -20.5625 12.6875 -23.1875 12.0625 C-16.7351437 4.98572212 -9.78345842 -0.10519848 0 0 Z " fill="#06B0C7" transform="translate(193.1875,79.9375)"/>
<path d="M0 0 C8.11944534 0.19084166 8.11944534 0.19084166 11.3125 3.125 C12.1478125 4.548125 12.1478125 4.548125 13 6 C13.3815625 6.57621094 13.763125 7.15242187 14.15625 7.74609375 C15.76786611 10.27785554 17 12.26219799 17 15.3125 C15.67171959 17.55397318 14.44916599 18.18361134 12 19 C11.34 18.67 10.68 18.34 10 18 C9.67 21.3 9.34 24.6 9 28 C8.67 28 8.34 28 8 28 C7.92523438 27.04480469 7.85046875 26.08960938 7.7734375 25.10546875 C6.94999629 17.00829686 5.64182271 11.11574017 1.2421875 4.07421875 C0 2 0 2 0 0 Z " fill="#077590" transform="translate(161,130)"/>
<path d="M0 0 C0.66 0 1.32 0 2 0 C3.3540932 1.98600337 4.68457624 3.98817543 6 6 C7.29682374 7.36886951 8.61823134 8.7169291 10 10 C8.49776416 14.20626034 5.71449966 15.73900021 2 18 C0.84481082 17.09515208 -0.29885406 16.1755794 -1.4375 15.25 C-2.07558594 14.73953125 -2.71367187 14.2290625 -3.37109375 13.703125 C-5.26020674 11.72793731 -5.86553406 10.73069291 -6 8 C-4.85546875 5.859375 -4.85546875 5.859375 -3.1875 3.75 C-2.37345703 2.69039062 -2.37345703 2.69039062 -1.54296875 1.609375 C-1.03378906 1.07828125 -0.52460938 0.5471875 0 0 Z " fill="#064962" transform="translate(133,164)"/>
<path d="M0 0 C1.80156361 4.80416963 -0.3777086 8.22561455 -2.3359375 12.68359375 C-5.73869638 19.46514842 -9.5451686 26.73032311 -16 31 C-17.02416321 23.00221642 -13.83418365 18.93108497 -9.125 12.6875 C-8.47402344 11.79482422 -7.82304687 10.90214844 -7.15234375 9.98242188 C-5.94759939 8.3317979 -4.73505941 6.68681451 -3.51220703 5.04956055 C-2.29492407 3.39972353 -1.13730315 1.70595473 0 0 Z " fill="#21262B" transform="translate(138,137)"/>
<path d="M0 0 C18.14925041 5.29574902 30.25560297 24.2360182 39 40 C38.34 40 37.68 40 37 40 C37 39.34 37 38.68 37 38 C36.34 38 35.68 38 35 38 C34.505 38.99 34.505 38.99 34 40 C33.34 38.02 32.68 36.04 32 34 C31.34 34.99 30.68 35.98 30 37 C27.91299125 33.86948687 26.492702 30.75602378 25.1875 27.25 C20.25365471 14.79527444 11.77203252 7.14193001 0 1 C0 0.67 0 0.34 0 0 Z " fill="#A2ECEE" transform="translate(78,86)"/>
<path d="M0 0 C0.33 0 0.66 0 1 0 C1.10054687 0.6084375 1.20109375 1.216875 1.3046875 1.84375 C2.72092233 8.43991224 5.28368948 13.42747662 8.9375 19 C13.82552368 26.4685971 18.36027344 33.7802751 18 43 C15.97187869 39.95781803 14.50639372 36.92598206 12.9375 33.625 C9.85134505 27.27291408 6.17316389 21.63594491 2.015625 15.9375 C-3.22345026 8.30225853 -3.22345026 8.30225853 -2.63671875 4.8828125 C-1.7578125 3.25520833 -0.87890625 1.62760417 0 0 Z " fill="#1FA5BE" transform="translate(163,108)"/>
<path d="M0 0 C0.99 0.33 1.98 0.66 3 1 C2.38685521 4.44397518 1.09729004 6.48935488 -1.0546875 9.22265625 C-1.66957031 10.00833984 -2.28445312 10.79402344 -2.91796875 11.60351562 C-3.56378906 12.41498047 -4.20960938 13.22644531 -4.875 14.0625 C-5.51308594 14.87783203 -6.15117187 15.69316406 -6.80859375 16.53320312 C-9.41477278 19.84397544 -11.9604539 23.0735613 -15 26 C-16.3125 23.9296875 -16.3125 23.9296875 -17 21 C-15.4304978 18.40664285 -13.95927339 16.38849322 -12 14.125 C-11.48977295 13.50802246 -10.9795459 12.89104492 -10.45385742 12.25537109 C-8.98618239 10.48837528 -7.49679659 8.74233615 -6 7 C-5.31550781 6.1853125 -4.63101563 5.370625 -3.92578125 4.53125 C-2.6347621 3.00578428 -1.32103214 1.49955 0 0 Z " fill="#98ECEE" transform="translate(150,88)"/>
<path d="M0 0 C0.66 0 1.32 0 2 0 C3.65625 2.23046875 3.65625 2.23046875 5.5 5.1875 C6.1084375 6.15042969 6.716875 7.11335938 7.34375 8.10546875 C8.82620404 10.69626696 9.97690007 13.20182169 11 16 C8.69 16 6.38 16 4 16 C4 15.34 4 14.68 4 14 C3.01 14.33 2.02 14.66 1 15 C0.62875 14.0409375 0.62875 14.0409375 0.25 13.0625 C-0.81562433 10.81258459 -0.81562433 10.81258459 -3.125 10.25 C-3.74375 10.1675 -4.3625 10.085 -5 10 C-3.66749209 6.4124787 -2.169283 3.1635377 0 0 Z " fill="#0F3243" transform="translate(159,116)"/>
<path d="M0 0 C5.84999398 0.87155667 9.30982796 5.73828616 13 10 C16.66252561 15.07225245 19.81255522 20.12454447 22 26 C20.125 25.75 20.125 25.75 18 25 C17 23.1875 17 23.1875 16 21 C14.66953096 19.66380851 13.33572067 18.33094171 12 17 C9.99180653 14.50872222 8.04467919 11.97675854 6.09765625 9.4375 C3.93362341 6.92286966 1.64719003 4.98884538 -1 3 C-0.67 2.01 -0.34 1.02 0 0 Z " fill="#11A2BD" transform="translate(93,114)"/>
<path d="M0 0 C0.33 0.66 0.66 1.32 1 2 C2.32 2 3.64 2 5 2 C3.71088472 5.49260302 2.20040104 8.43276763 0.1015625 11.50390625 C-0.74148437 12.73850586 -0.74148437 12.73850586 -1.6015625 13.99804688 C-2.18679687 14.84431641 -2.77203125 15.69058594 -3.375 16.5625 C-4.24125 17.83770508 -4.24125 17.83770508 -5.125 19.13867188 C-7.85419647 23.11096126 -10.50828025 26.65443867 -14 30 C-14 29.34 -14 28.68 -14 28 C-14.99 28 -15.98 28 -17 28 C-17 26.02 -17 24.04 -17 22 C-16.34 23.32 -15.68 24.64 -15 26 C-8.3617049 18.37302265 -3.20807877 9.62423631 0 0 Z " fill="#9CE6E9" transform="translate(138,141)"/>
<path d="M0 0 C1.5 1.3125 1.5 1.3125 3 3 C3 3.99 3 4.98 3 6 C3.99 5.67 4.98 5.34 6 5 C6 5.66 6 6.32 6 7 C6.99 7.33 7.98 7.66 9 8 C9 8.99 9 9.98 9 11 C9.99 11 10.98 11 12 11 C11.67 16.28 11.34 21.56 11 27 C10.34 25.68 9.68 24.36 9 23 C8.36539841 21.78404896 7.72864972 20.56921627 7.08984375 19.35546875 C6.37212201 17.96628727 5.65468211 16.57696015 4.9375 15.1875 C4.39125977 14.15786133 4.39125977 14.15786133 3.83398438 13.10742188 C1.56168263 8.66782308 0.42282975 4.97638087 0 0 Z " fill="#A6F4F6" transform="translate(109,119)"/>
<path d="M0 0 C1.98 0 3.96 0 6 0 C4.68 3.3 3.36 6.6 2 10 C1.13117188 10.04898438 0.26234375 10.09796875 -0.6328125 10.1484375 C-1.78523438 10.22320312 -2.93765625 10.29796875 -4.125 10.375 C-5.83042969 10.47941406 -5.83042969 10.47941406 -7.5703125 10.5859375 C-10.95707003 10.99481711 -13.78116181 11.91499836 -17 13 C-20.375 12.625 -20.375 12.625 -23 12 C-19.83525695 8.74483572 -16.67247209 5.67991207 -13 3 C-12.34 3 -11.68 3 -11 3 C-11.66 4.65 -12.32 6.3 -13 8 C-13.66 8 -14.32 8 -15 8 C-15 8.66 -15 9.32 -15 10 C-13.845 9.67 -12.69 9.34 -11.5 9 C-7.22499413 7.91598066 -3.39638547 7.84298623 1 8 C1.67801034 5.09926819 1.67801034 5.09926819 2 2 C1.34 1.34 0.68 0.68 0 0 Z " fill="#17AEC2" transform="translate(193,80)"/>
<path d="M0 0 C8.12538516 0.19098128 8.12538516 0.19098128 11.5 3.3125 C12.79229701 5.62786547 13.61413017 7.39537864 14 10 C12.329375 10.2165625 12.329375 10.2165625 10.625 10.4375 C7.17857953 10.78372035 7.17857953 10.78372035 5 12 C4.16180842 10.37750059 3.3295884 8.75191503 2.5 7.125 C2.0359375 6.22007812 1.571875 5.31515625 1.09375 4.3828125 C0 2 0 2 0 0 Z " fill="#084C64" transform="translate(161,130)"/>
<path d="M0 0 C1.670625 0.061875 1.670625 0.061875 3.375 0.125 C2.653125 0.82625 1.93125 1.5275 1.1875 2.25 C0.24752546 3.20590632 -0.68988695 4.16433741 -1.625 5.125 C-2.470625 5.99125 -3.31625 6.8575 -4.1875 7.75 C-7.62917292 11.8887206 -9.01443932 17.06837933 -10.625 22.125 C-11.81271723 18.69556481 -11.42726223 16.74715325 -10.1875 13.375 C-9.90003906 12.57578125 -9.61257812 11.7765625 -9.31640625 10.953125 C-9.08824219 10.34984375 -8.86007813 9.7465625 -8.625 9.125 C-9.615 9.125 -10.605 9.125 -11.625 9.125 C-10.66770084 7.99911986 -9.70912105 6.8743285 -8.75 5.75 C-8.21632812 5.12351562 -7.68265625 4.49703125 -7.1328125 3.8515625 C-3.88626126 0.13400901 -3.88626126 0.13400901 0 0 Z " fill="#4DEAF2" transform="translate(172.625,91.875)"/>
<path d="M0 0 C3 0 3 0 6 1 C1.05 7.93 1.05 7.93 -4 15 C-4.33 14.34 -4.66 13.68 -5 13 C-6.32 13.99 -7.64 14.98 -9 16 C-9.66 15.67 -10.32 15.34 -11 15 C-10.28972656 14.08476563 -9.57945312 13.16953125 -8.84765625 12.2265625 C-7.91918172 11.02611058 -6.99080118 9.82558597 -6.0625 8.625 C-5.59392578 8.02171875 -5.12535156 7.4184375 -4.64257812 6.796875 C-2.09448545 3.54591619 -2.09448545 3.54591619 0 0 Z " fill="#232A2E" transform="translate(154,102)"/>
<path d="M0 0 C0.66 0.33 1.32 0.66 2 1 C2 2.98 2 4.96 2 7 C1.34 6.34 0.68 5.68 0 5 C-0.79664063 6.19496094 -0.79664063 6.19496094 -1.609375 7.4140625 C-5.07291667 12.609375 -8.53645833 17.8046875 -12 23 C-13.32 22.34 -14.64 21.68 -16 21 C-15.34 21 -14.68 21 -14 21 C-13.72293213 20.41951904 -13.44586426 19.83903809 -13.16040039 19.2409668 C-12.04274895 17.08255682 -10.81368557 15.14317266 -9.43359375 13.14453125 C-8.94826172 12.44005859 -8.46292969 11.73558594 -7.96289062 11.00976562 C-7.45951172 10.28466797 -6.95613281 9.55957031 -6.4375 8.8125 C-5.67663086 7.70745117 -5.67663086 7.70745117 -4.90039062 6.58007812 C-1.1460891 1.1460891 -1.1460891 1.1460891 0 0 Z " fill="#96D7DB" transform="translate(138,133)"/>
<path d="M0 0 C0.33 0 0.66 0 1 0 C1.05389087 1.95803507 1.09274217 3.91648909 1.125 5.875 C1.14820313 6.96554688 1.17140625 8.05609375 1.1953125 9.1796875 C1 12 1 12 -1 14 C-1 12.35 -1 10.7 -1 9 C-3.9719385 10.12451727 -6.33440687 11.22293791 -9 13 C-9.99 13 -10.98 13 -12 13 C-12.66 13.66 -13.32 14.32 -14 15 C-14.33 14.01 -14.66 13.02 -15 12 C-13 9 -13 9 -11.125 8.375 C-10.073125 8.189375 -10.073125 8.189375 -9 8 C-6.85744207 7.61067144 -6.85744207 7.61067144 -5 7 C-4.67 6.34 -4.34 5.68 -4 5 C-3.34 5 -2.68 5 -2 5 C-1.34 3.35 -0.68 1.7 0 0 Z " fill="#0A9CB8" transform="translate(181,153)"/>
<path d="M0 0 C4.92875898 3.63722865 7.42848701 6.86056244 9.875 12.4375 C10.18179688 13.08009766 10.48859375 13.72269531 10.8046875 14.38476562 C12.63519849 18.40943822 13.34053708 21.59345024 13 26 C10.28855755 24.64427878 10.25450791 23.38657707 9.25 20.5625 C7.4259895 15.75812517 5.07401253 11.61969008 2.26953125 7.32421875 C0.92409486 4.8610352 0.4059092 2.76311687 0 0 Z " fill="#1A2932" transform="translate(106,122)"/>
<path d="M0 0 C12.19318106 3.55783436 21.78026709 13.1723552 28 24 C27.01 24.66 26.02 25.32 25 26 C24.70867187 25.43152344 24.41734375 24.86304687 24.1171875 24.27734375 C19.26498564 15.13750439 14.45267847 9.88484977 5.48828125 4.578125 C3.32008546 3.20300553 1.70773976 1.8962194 0 0 Z " fill="#91C1C5" transform="translate(78,86)"/>
<path d="M0 0 C0.66 0 1.32 0 2 0 C0.64527694 5.58823264 -3.58113173 8.69001754 -8 12 C-9.31464089 12.70280975 -10.6432185 13.38245147 -12 14 C-12.0625 10.8125 -12.0625 10.8125 -11 7 C-7.8667412 4.52766298 -4.08784259 2 0 2 C0 1.34 0 0.68 0 0 Z " fill="#A4F0F2" transform="translate(192,54)"/>
<path d="M0 0 C2.67927341 4.01891012 2.15601248 6.24161923 2 11 C1.34 9.68 0.68 8.36 0 7 C-0.99 8.485 -0.99 8.485 -2 10 C-3.98248715 10.71706982 -5.98415349 11.38290413 -8 12 C-8.99 12.66 -9.98 13.32 -11 14 C-11.66 13.34 -12.32 12.68 -13 12 C-9.25 9 -9.25 9 -7 9 C-6.67 8.34 -6.34 7.68 -6 7 C-4.33333333 5.33333333 -2.66666667 3.66666667 -1 2 C-0.67 1.34 -0.34 0.68 0 0 Z " fill="#088AA5" transform="translate(181,149)"/>
<path d="M0 0 C1.70840281 1.63412443 2.93453047 2.86906094 4 5 C4.639375 5.2475 5.27875 5.495 5.9375 5.75 C8.9127423 7.55317715 9.14907937 9.7381376 10 13 C10.66 12.67 11.32 12.34 12 12 C11.67 13.65 11.34 15.3 11 17 C10.01 17.33 9.02 17.66 8 18 C7.67 16.35 7.34 14.7 7 13 C6.34 13 5.68 13 5 13 C4.16209211 11.21046815 3.32980604 9.41830305 2.5 7.625 C1.80390625 6.12839844 1.80390625 6.12839844 1.09375 4.6015625 C0 2 0 2 0 0 Z " fill="#52DBE5" transform="translate(108,134)"/>
<path d="M0 0 C0.99 0.66 1.98 1.32 3 2 C1.49776416 6.20626034 -1.28550034 7.73900021 -5 10 C-7 8.625 -7 8.625 -9 7 C-9 6.34 -9 5.68 -9 5 C-6.03 4.01 -3.06 3.02 0 2 C0 1.34 0 0.68 0 0 Z " fill="#047792" transform="translate(140,172)"/>
<path d="M0 0 C0.66 0 1.32 0 2 0 C2.391875 1.051875 2.78375 2.10375 3.1875 3.1875 C4.76402557 6.91658932 6.96895425 9.29663487 10 12 C9.01 12 8.02 12 7 12 C6.67 12.66 6.34 13.32 6 14 C4.84545838 12.75803878 3.70167438 11.50607155 2.5625 10.25 C1.92441406 9.55390625 1.28632813 8.8578125 0.62890625 8.140625 C-1.00608421 5.99200444 -1.78021397 4.68251671 -2 2 C-1.34 1.34 -0.68 0.68 0 0 Z " fill="#15A9BE" transform="translate(136,160)"/>
<path d="M0 0 C1.32 0.66 2.64 1.32 4 2 C2.50902342 5.7952131 0.24299151 7.61042731 -3 10 C-5.475 9.01 -5.475 9.01 -8 8 C-7.236875 7.4225 -6.47375 6.845 -5.6875 6.25 C-3.33799083 4.28296907 -1.70676495 2.51523256 0 0 Z " fill="#0692AD" transform="translate(143,174)"/>
<path d="M0 0 C0.66 0 1.32 0 2 0 C3.6875 2.375 3.6875 2.375 5 5 C4.67 5.66 4.34 6.32 4 7 C1.71484375 7.6328125 1.71484375 7.6328125 -1.0625 8.125 C-1.98160156 8.29257813 -2.90070313 8.46015625 -3.84765625 8.6328125 C-4.91306641 8.81457031 -4.91306641 8.81457031 -6 9 C-2.25 2.25 -2.25 2.25 0 0 Z " fill="#07394F" transform="translate(133,164)"/>
<path d="M0 0 C0.66 0.33 1.32 0.66 2 1 C1.54625 1.61875 1.0925 2.2375 0.625 2.875 C-1.56839052 7.0930587 -2.23083349 11.33975586 -3 16 C-5.125 13.9375 -5.125 13.9375 -7 11 C-6.45699673 6.57840192 -5.65215995 4.60557709 -2.375 1.5625 C-1.59125 1.046875 -0.8075 0.53125 0 0 Z " fill="#8FF6F8" transform="translate(164,99)"/>
<path d="M0 0 C0.99 0.33 1.98 0.66 3 1 C-3.15034169 10.59453303 -3.15034169 10.59453303 -7 14 C-7 13.34 -7 12.68 -7 12 C-7.66 11.67 -8.32 11.34 -9 11 C-6.03 7.37 -3.06 3.74 0 0 Z " fill="#9BDEE1" transform="translate(131,129)"/>
<path d="M0 0 C0.66 0 1.32 0 2 0 C2.33 0.99 2.66 1.98 3 3 C1.34765625 5.48046875 1.34765625 5.48046875 -0.9375 8.1875 C-1.68902344 9.08855469 -2.44054687 9.98960937 -3.21484375 10.91796875 C-3.80394531 11.60503906 -4.39304687 12.29210937 -5 13 C-5.33 12.34 -5.66 11.68 -6 11 C-6.99 11 -7.98 11 -9 11 C-7.56111673 8.12223347 -5.2675702 6.2675702 -3 4 C-2.443125 3.236875 -1.88625 2.47375 -1.3125 1.6875 C-0.6628125 0.8521875 -0.6628125 0.8521875 0 0 Z " fill="#98E3E6" transform="translate(127,119)"/>
<path d="M0 0 C2.0625 0.4375 2.0625 0.4375 4 1 C3.07544441 2.508013 2.1349253 4.00624917 1.1875 5.5 C0.66542969 6.3353125 0.14335937 7.170625 -0.39453125 8.03125 C-0.92433594 8.6809375 -1.45414063 9.330625 -2 10 C-2.99 10 -3.98 10 -5 10 C-5.33 9.34 -5.66 8.68 -6 8 C-5.34 8 -4.68 8 -4 8 C-4.66 6.68 -5.32 5.36 -6 4 C-5.195625 3.525625 -4.39125 3.05125 -3.5625 2.5625 C-1.15246512 1.23099846 -1.15246512 1.23099846 0 0 Z " fill="#26272B" transform="translate(143,107)"/>
<path d="M0 0 C-0.3125 3.375 -0.3125 3.375 -1 7 C-1.99 7.66 -2.98 8.32 -4 9 C-4.66 7.68 -5.32 6.36 -6 5 C-8.475 6.485 -8.475 6.485 -11 8 C-11.33 7.34 -11.66 6.68 -12 6 C-10.37829621 4.99466333 -8.75252763 3.99588093 -7.125 3 C-5.76761719 2.1646875 -5.76761719 2.1646875 -4.3828125 1.3125 C-2 0 -2 0 0 0 Z " fill="#A2EEF0" transform="translate(181,62)"/>
<path d="M0 0 C2 3 2 3 1.90234375 5.015625 C0.66689285 7.73254733 -0.81355509 8.38974696 -3.4375 9.75 C-4.24058594 10.17796875 -5.04367188 10.6059375 -5.87109375 11.046875 C-8 12 -8 12 -10 12 C-10 11.34 -10 10.68 -10 10 C-8.3203125 8.37890625 -8.3203125 8.37890625 -6.125 6.5625 C-3.53806278 4.41599116 -1.88815626 2.83223438 0 0 Z " fill="#9DEAED" transform="translate(109,181)"/>
<path d="M0 0 C3.62613199 0.56959153 5.25517741 1.92374534 7.75 4.5625 C8.36359375 5.20316406 8.9771875 5.84382813 9.609375 6.50390625 C10.06828125 6.99761719 10.5271875 7.49132812 11 8 C10.34 8.66 9.68 9.32 9 10 C5.39486597 7.93992341 2.19668988 5.6486859 -1 3 C-0.67 2.01 -0.34 1.02 0 0 Z " fill="#1493AE" transform="translate(93,114)"/>
<path d="M0 0 C0.375 2.25 0.375 2.25 0 5 C-4.97297297 9 -4.97297297 9 -8 9 C-8.33 9.66 -8.66 10.32 -9 11 C-9.125 5.25 -9.125 5.25 -8 3 C-6.67203709 2.64587656 -5.33783393 2.31478446 -4 2 C-1 0 -1 0 0 0 Z " fill="#027E9A" transform="translate(179,145)"/>
<path d="M0 0 C3.6990884 1.23302947 3.91782204 2.10659105 5.625 5.5 C7.99045181 10.42980048 8.73701144 14.5649031 9 20 C6.85527073 16.7829061 5.11168935 13.44513986 3.375 10 C3.05015625 9.3709375 2.7253125 8.741875 2.390625 8.09375 C0.93171087 5.2004413 0 3.28547979 0 0 Z " fill="#1298C1" transform="translate(172,131)"/>
<path d="M0 0 C0.99 0.99 1.98 1.98 3 3 C2.67 3.99 2.34 4.98 2 6 C0.576875 6.2165625 0.576875 6.2165625 -0.875 6.4375 C-3.8934494 6.82935399 -3.8934494 6.82935399 -6 8 C-6.33 6.35 -6.66 4.7 -7 3 C-4.66785852 1.79371992 -2.50357861 0.8345262 0 0 Z " fill="#075973" transform="translate(172,134)"/>
<path d="M0 0 C0.66 0 1.32 0 2 0 C2.33 0.99 2.66 1.98 3 3 C1.8203125 4.90234375 1.8203125 4.90234375 0.125 6.9375 C-2.09510209 9.6171116 -3.3973169 11.54616224 -4 15 C-4.99 13.35 -5.98 11.7 -7 10 C-5.88321917 8.3278148 -4.75633648 6.66237197 -3.625 5 C-2.99851563 4.071875 -2.37203125 3.14375 -1.7265625 2.1875 C-1.15679687 1.465625 -0.58703125 0.74375 0 0 Z " fill="#1B2228" transform="translate(131,161)"/>
<path d="M0 0 C3.4372166 -0.11604679 6.87393086 -0.18719508 10.3125 -0.25 C11.28896484 -0.28351563 12.26542969 -0.31703125 13.27148438 -0.3515625 C14.20927734 -0.36445312 15.14707031 -0.37734375 16.11328125 -0.390625 C16.97735596 -0.41157227 17.84143066 -0.43251953 18.73168945 -0.45410156 C21 0 21 0 22.80541992 2.02441406 C23.19963135 2.67635742 23.59384277 3.32830078 24 4 C23.67 4.66 23.34 5.32 23 6 C20.33333333 5.33333333 17.66666667 4.66666667 15 4 C15 3.34 15 2.68 15 2 C10.05 1.67 5.1 1.34 0 1 C0 0.67 0 0.34 0 0 Z " fill="#1C8EA2" transform="translate(93,74)"/>
<path d="M0 0 C2.64 0 5.28 0 8 0 C8.33 1.32 8.66 2.64 9 4 C8.43410156 4.12117187 7.86820313 4.24234375 7.28515625 4.3671875 C6.55167969 4.53476563 5.81820312 4.70234375 5.0625 4.875 C3.96615234 5.11863281 3.96615234 5.11863281 2.84765625 5.3671875 C0.79299706 5.82961523 0.79299706 5.82961523 0 8 C-1.125 2.25 -1.125 2.25 0 0 Z " fill="#056782" transform="translate(168,139)"/>
<path d="M0 0 C0.33 0.99 0.66 1.98 1 3 C0.01 3.33 -0.98 3.66 -2 4 C-2.309375 4.78375 -2.61875 5.5675 -2.9375 6.375 C-4.15165758 9.37468342 -5.2512455 10.36792702 -8 12 C-8.66 12 -9.32 12 -10 12 C-9.49452628 7.91944849 -7.49911118 6.33727705 -4.4375 3.75 C-3.61121094 3.04359375 -2.78492188 2.3371875 -1.93359375 1.609375 C-1.29550781 1.07828125 -0.65742188 0.5471875 0 0 Z " fill="#9FEEF1" transform="translate(168,69)"/>
<path d="M0 0 C0.66 1.32 1.32 2.64 2 4 C-1.42346555 7.14958831 -4.44262737 7.56179109 -9 8 C-9 7.34 -9 6.68 -9 6 C-8.34 5.67 -7.68 5.34 -7 5 C-6.34 4.01 -5.68 3.02 -5 2 C-2 0 -2 0 0 0 Z " fill="#A9FCFE" transform="translate(175,67)"/>
<path d="M0 0 C0.66 0 1.32 0 2 0 C5 4.38461538 5 4.38461538 5 7 C2.69 7.33 0.38 7.66 -2 8 C-2.20086443 4.28400809 -2.1519437 3.22791555 0 0 Z " fill="#162832" transform="translate(159,116)"/>
<path d="M0 0 C3.1875 0 3.1875 0 7 1 C9.09704436 3.45520293 10.57276992 6.11265436 12 9 C6.03648545 7.72210402 3.51582826 4.66283606 0 0 Z " fill="#1B242B" transform="translate(98,116)"/>
<path d="M0 0 C3.95602172 4.85511756 5.29212746 8.71925967 5 15 C2.22295969 13.61147985 1.96617263 12.03211518 0.8125 9.1875 C0.44769531 8.31480469 0.08289063 7.44210938 -0.29296875 6.54296875 C-1.04115271 3.85198664 -0.9458895 2.584628 0 0 Z " fill="#1D353E" transform="translate(114,133)"/>
<path d="M0 0 C1.485 0.2475 1.485 0.2475 3 0.5 C0.04923989 3.88790976 -1.69632422 4.63926484 -6 5.5 C-8.29289472 7.45809523 -8.29289472 7.45809523 -10 9.5 C-10.66 9.17 -11.32 8.84 -12 8.5 C-4.6302149 -0.07574994 -4.6302149 -0.07574994 0 0 Z " fill="#5BDBE1" transform="translate(173,91.5)"/>
<path d="M0 0 C0.33 0 0.66 0 1 0 C1.22162329 1.62324086 1.42689803 3.248721 1.625 4.875 C1.74101562 5.77992187 1.85703125 6.68484375 1.9765625 7.6171875 C1.98429688 8.40351562 1.99203125 9.18984375 2 10 C1.34 10.66 0.68 11.32 0 12 C-1.6875 9.9375 -1.6875 9.9375 -3 7 C-2.35079153 4.38152585 -1.27734353 2.41276 0 0 Z " fill="#25C8DA" transform="translate(163,108)"/>
<path d="M0 0 C1.98 0 3.96 0 6 0 C4.68 2.97 3.36 5.94 2 9 C-0.97 9 -3.94 9 -7 9 C-7 8.67 -7 8.34 -7 8 C-4.36 8 -1.72 8 1 8 C1.67801034 5.09926819 1.67801034 5.09926819 2 2 C1.34 1.34 0.68 0.68 0 0 Z " fill="#1AC6DB" transform="translate(193,80)"/>
<path d="M0 0 C0.66 0 1.32 0 2 0 C0.64978174 4.41889613 -1.26115668 6.34345343 -5 9 C-5 8.01 -5 7.02 -5 6 C-5.66 5.67 -6.32 5.34 -7 5 C-2.25 2 -2.25 2 0 2 C0 1.34 0 0.68 0 0 Z " fill="#8DD1D4" transform="translate(192,54)"/>
<path d="M0 0 C0.66 0.33 1.32 0.66 2 1 C2 1.99 2 2.98 2 4 C-1.3 5.32 -4.6 6.64 -8 8 C-8.33 7.01 -8.66 6.02 -9 5 C-6.03 4.34 -3.06 3.68 0 3 C0 2.01 0 1.02 0 0 Z " fill="#085872" transform="translate(138,170)"/>
<path d="M0 0 C2.64 0.33 5.28 0.66 8 1 C8.33 2.32 8.66 3.64 9 5 C6.69 5 4.38 5 2 5 C2 4.34 2 3.68 2 3 C1.01 3.33 0.02 3.66 -1 4 C-0.67 2.68 -0.34 1.36 0 0 Z " fill="#063C53" transform="translate(161,127)"/>
<path d="M0 0 C0.45375 0.66 0.9075 1.32 1.375 2 C1.91125 2.66 2.4475 3.32 3 4 C3.66 4 4.32 4 5 4 C5.66 2.68 6.32 1.36 7 0 C7.625 1.875 7.625 1.875 8 4 C7.34 4.66 6.68 5.32 6 6 C4.68 6 3.36 6 2 6 C1.67 6.66 1.34 7.32 1 8 C0.67 5.36 0.34 2.72 0 0 Z " fill="#93EFF1" transform="translate(114,147)"/>
<path d="M0 0 C2.3125 0.0625 2.3125 0.0625 5 1 C6.8125 4.5625 6.8125 4.5625 8 8 C6.125 7.75 6.125 7.75 4 7 C2.875 5 2.875 5 2 3 C1.34 2.67 0.68 2.34 0 2 C0 1.34 0 0.68 0 0 Z " fill="#1FC5DA" transform="translate(107,132)"/>
<path d="M0 0 C0.99 0 1.98 0 3 0 C3 1.98 3 3.96 3 6 C1.35 5.67 -0.3 5.34 -2 5 C-1.125 1.125 -1.125 1.125 0 0 Z " fill="#1E1F22" transform="translate(126,155)"/>
<path d="M0 0 C0.66 1.32 1.32 2.64 2 4 C3.32 3.34 4.64 2.68 6 2 C6 5 6 5 4.5 6.6875 C4.005 7.120625 3.51 7.55375 3 8 C3 7.34 3 6.68 3 6 C2.01 6 1.02 6 0 6 C0 4.02 0 2.04 0 0 Z " fill="#97D5D8" transform="translate(121,163)"/>
<path d="M0 0 C0.33 0.66 0.66 1.32 1 2 C1.99 1.67 2.98 1.34 4 1 C4.33 1.99 4.66 2.98 5 4 C3.6875 6.1875 3.6875 6.1875 2 8 C1.34 8 0.68 8 0 8 C0 5.36 0 2.72 0 0 Z " fill="#2B3236" transform="translate(122,146)"/>
<path d="M0 0 C1.5625 1.6875 1.5625 1.6875 3 4 C2.6875 6.75 2.6875 6.75 2 9 C0.68 7.68 -0.64 6.36 -2 5 C-1.34 3.35 -0.68 1.7 0 0 Z " fill="#1AADC5" transform="translate(165,116)"/>
<path d="M0 0 C2.64752004 2.57784846 4.94432065 4.91648098 7 8 C6.01 8.66 5.02 9.32 4 10 C3.32845067 8.71086513 2.66291141 7.41859796 2 6.125 C1.62875 5.40570313 1.2575 4.68640625 0.875 3.9453125 C0 2 0 2 0 0 Z " fill="#95D5D8" transform="translate(99,102)"/>
<path d="M0 0 C1.32 0.33 2.64 0.66 4 1 C2.68 2.32 1.36 3.64 0 5 C-2.475 4.01 -2.475 4.01 -5 3 C-4.67 2.34 -4.34 1.68 -4 1 C-2.02 1.495 -2.02 1.495 0 2 C0 1.34 0 0.68 0 0 Z " fill="#282C32" transform="translate(151,97)"/>
<path d="M0 0 C1.98 0 3.96 0 6 0 C6 1.32 6 2.64 6 4 C5.34 4.66 4.68 5.32 4 6 C2.68 4.02 1.36 2.04 0 0 Z " fill="#9CEEF0" transform="translate(93,75)"/>
<path d="M0 0 C0.66 0 1.32 0 2 0 C2.33 1.98 2.66 3.96 3 6 C1.68 6 0.36 6 -1 6 C-1.625 4.125 -1.625 4.125 -2 2 C-1.34 1.34 -0.68 0.68 0 0 Z " fill="#27A2B4" transform="translate(136,160)"/>
<path d="M0 0 C-0.33 1.32 -0.66 2.64 -1 4 C-1.61875 4.12375 -2.2375 4.2475 -2.875 4.375 C-5.19120832 4.87197356 -5.19120832 4.87197356 -7 7 C-7.33 6.01 -7.66 5.02 -8 4 C-3.375 0 -3.375 0 0 0 Z " fill="#05A9C2" transform="translate(181,161)"/>
<path d="M0 0 C0.66 0 1.32 0 2 0 C2.144375 0.763125 2.28875 1.52625 2.4375 2.3125 C2.9632594 5.08172908 2.9632594 5.08172908 4 8 C3.01 8.495 3.01 8.495 2 9 C0.4375 6.1875 0.4375 6.1875 -1 3 C-0.67 2.01 -0.34 1.02 0 0 Z " fill="#A6F8FA" transform="translate(127,112)"/>
<path d="M0 0 C0.66 0 1.32 0 2 0 C2.33 1.32 2.66 2.64 3 4 C2.01 4 1.02 4 0 4 C-0.33 4.66 -0.66 5.32 -1 6 C-1.66 5.67 -2.32 5.34 -3 5 C-1.125 1.125 -1.125 1.125 0 0 Z " fill="#0D3447" transform="translate(133,164)"/>
<path d="M0 0 C0.66 0 1.32 0 2 0 C0.92598892 2.91517292 0.22189824 4.77810176 -2 7 C-2.99 6.34 -3.98 5.68 -5 5 C-4.34 5 -3.68 5 -3 5 C-2.5359375 4.0409375 -2.5359375 4.0409375 -2.0625 3.0625 C-1 1 -1 1 0 0 Z " fill="#96DDE0" transform="translate(127,149)"/>
<path d="M0 0 C0.66 0.33 1.32 0.66 2 1 C1.2884375 2.0828125 1.2884375 2.0828125 0.5625 3.1875 C-0.94152903 5.89475226 -1.56599182 7.96194275 -2 11 C-2.33 11 -2.66 11 -3 11 C-3.33 8.36 -3.66 5.72 -4 3 C-2.68 2.01 -1.36 1.02 0 0 Z " fill="#6DF7FB" transform="translate(164,99)"/>
<path d="M0 0 C-0.33 2.31 -0.66 4.62 -1 7 C-2.65 5.35 -4.3 3.7 -6 2 C-2.25 0 -2.25 0 0 0 Z " fill="#9BE9EB" transform="translate(181,62)"/>
<path d="M0 0 C-2.52956528 3.0916909 -5.22454612 3.90931332 -9 5 C-9 4.34 -9 3.68 -9 3 C-6.04341306 0.15291628 -4.05047276 -0.3375394 0 0 Z " fill="#9CDEE1" transform="translate(108,188)"/>
<path d="M0 0 C1.32 0.33 2.64 0.66 4 1 C2.68 2.65 1.36 4.3 0 6 C-0.66 5.67 -1.32 5.34 -2 5 C-1.34 3.35 -0.68 1.7 0 0 Z " fill="#04A9C2" transform="translate(169,165)"/>
<path d="M0 0 C0.33 0 0.66 0 1 0 C1 1.65 1 3.3 1 5 C1.66 5.33 2.32 5.66 3 6 C2.01 6.99 1.02 7.98 0 9 C-1.125 7.3125 -1.125 7.3125 -2 5 C-1.125 2.25 -1.125 2.25 0 0 Z " fill="#8AD3D6" transform="translate(137,144)"/>
<path d="M0 0 C0.33 0.66 0.66 1.32 1 2 C-0.65 3.65 -2.3 5.3 -4 7 C-4 5.68 -4 4.36 -4 3 C-2 1.25 -2 1.25 0 0 Z " fill="#A8E7EA" transform="translate(137,123)"/>
<path d="M0 0 C1.32 0 2.64 0 4 0 C4.99 2.97 5.98 5.94 7 9 C4.03595495 6.19195732 1.55500981 3.81684226 0 0 Z " fill="#33B2C6" transform="translate(100,123)"/>
<path d="M0 0 C0.66 0.33 1.32 0.66 2 1 C-0.64 2.65 -3.28 4.3 -6 6 C-6.33 5.01 -6.66 4.02 -7 3 C-4.69631264 1.93347808 -2.35981813 0.93578995 0 0 Z " fill="#056782" transform="translate(138,174)"/>
<path d="M0 0 C0.598125 0.20625 1.19625 0.4125 1.8125 0.625 C1.1525 1.945 0.4925 3.265 -0.1875 4.625 C-0.5175 3.965 -0.8475 3.305 -1.1875 2.625 C-3.21213255 1.97286708 -3.21213255 1.97286708 -5.1875 1.625 C-2.1875 -0.375 -2.1875 -0.375 0 0 Z " fill="#1E1C20" transform="translate(128.1875,128.375)"/>
<path d="M0 0 C0.66 0 1.32 0 2 0 C2.33 0.99 2.66 1.98 3 3 C2.34 3.66 1.68 4.32 1 5 C-1.125 4.625 -1.125 4.625 -3 4 C-1.625 2 -1.625 2 0 0 Z " fill="#202931" transform="translate(131,161)"/>
<path d="M0 0 C1.98 0 3.96 0 6 0 C4.68 1.32 3.36 2.64 2 4 C1.01 3.34 0.02 2.68 -1 2 C-0.67 1.34 -0.34 0.68 0 0 Z " fill="#3ADCE9" transform="translate(170,92)"/>
</svg>
